<?xml version="1.0" encoding="utf-8"?>
<!-- Generator: Adobe Illustrator 22.0.1, SVG Export Plug-In . SVG Version: 6.00 Build 0)  -->
<svg version="1.1" id="Lag_1" xmlns="http://www.w3.org/2000/svg" xmlns:xlink="http://www.w3.org/1999/xlink" x="0px" y="0px"
	 viewBox="0 0 1252.1 320.9" style="enable-background:new 0 0 1252.1 320.9;" xml:space="preserve">
<style type="text/css">
	.st0{fill:#FFFFFF;}
</style>
<g id="OugLpV.tif">
	<g>
		<g>
			<path class="st0" d="M837,123.3c-1.1,0-2.3,0-3.3-0.1c-1.1-0.1-2.2-0.2-3.3-0.2c-4-0.3-8.1-0.6-12.1-1.4c-4.3-0.8-8.8-2-12.7-5
				c-1.2-0.9-2.4-1.7-3.7-2.6c-1.9-1.2-3.8-2.5-5.3-4c-2.2-2.2-4-4.8-5.8-7.4c-0.4-0.6-0.8-1.1-1.2-1.7c-1.4-2.1-2.9-4.2-3.9-6.6
				c-2.4-5.9-4.9-11.9-5.7-18.5c-1.4-11.4-1.2-21.4,0.7-30.6c1.5-7.5,3.9-13.4,7.3-18.2l1.1-1.6c2.1-3,4.2-6.1,6.6-8.9
				c3.1-3.8,7.2-6.9,12.8-9.9c7.9-4.1,16.2-5.1,23.2-5.4c0.6,0,1.1-0.2,1.7-0.4c0.2-0.1,0.4-0.1,0.6-0.2c1.2,0.1,2.4,0.1,3.7,0.1
				c0.1,0,0.3,0.1,0.4,0.1c0.5,0.2,1.1,0.4,1.6,0.4c1.6,0.2,3.2,0.4,4.8,0.6c3.2,0.4,6.5,0.7,9.6,1.2c4.9,0.8,9.2,3.2,13.2,5.6
				c2.5,1.5,5.7,3.6,8.4,6.1c2,1.9,3.6,4.2,5.2,6.5l0.7,1.1c1.5,2.1,3,4.4,4.2,6.9c1.3,2.8,2.4,5.8,3.3,8.5c0.4,1.3,0.8,2.6,1.1,3.9
				c0.2,0.7,0.3,1.5,0.5,2.2c2,7.6,1.6,15.5,1.2,23.1c-0.1,2-0.2,4-0.3,5.9c-0.1,2.9-1.1,5.8-2.1,8.7c-0.3,0.9-0.6,1.8-0.9,2.6
				l-0.4,1.3c-0.8,2.7-1.6,5.5-3,7.9c-1.7,3-3.7,5.9-5.7,8.7c-0.7,1-1.5,2.1-2.2,3.2c-4.1,5.9-10.2,9.6-16.1,13.2l-0.9,0.6
				c-1.5,0.9-3.4,1.4-4.9,1.7l-1,0.2C849,122.1,843,123.3,837,123.3z M836.4,12.8c-0.6,0-1.3,0-1.9,0.1c-4.4,0.3-8.6,1.6-12.7,2.9
				l-1.5,0.5c-5,1.6-8.7,4.8-12.4,7.8l-1,0.8c-2.3,1.9-4.4,4.7-6.4,8.9c-2.3,4.7-3.9,8.9-4.7,13c-0.9,3.8-1.2,7.6-1.4,10.7
				c-0.1,1.1-0.2,2-0.3,2.8c0,1.3,0.1,2.6,0.1,3.8c0.2,7.5,0.3,13.5,2.9,19.2c0.6,1.3,1.1,2.6,1.6,3.9c1.5,3.6,3,7.4,5.7,10.7
				c4.5,5.6,10.3,9.6,17.3,11.7c4.6,1.4,9.9,2.1,15.5,2.1l0.6,0c5.7-0.1,13.1-0.7,19.3-4.9c0.6-0.4,1.3-0.9,2-1.3
				c2.7-1.8,5.6-3.6,7.2-6.2c3.6-5.8,7-11.5,8.7-18.2c1.8-6.9,3-12.8,3.3-18.9c0.2-7-0.7-13.5-2.7-19.5l-0.5-1.4
				c-0.9-2.7-1.9-5.6-3.4-8.1c-2.4-4.1-5.8-9.3-11.1-12.9c-2.4-1.6-5-2.9-8.4-4.3C846.5,13.8,841.4,12.8,836.4,12.8z"/>
			<path d="M834.2,1c1.2,0.1,2.4,0.1,3.5,0.1c0.1,0,0.2,0.1,0.3,0.1c0.5,0.2,1.1,0.4,1.7,0.5c1.6,0.2,3.2,0.4,4.8,0.6
				c3.2,0.4,6.5,0.7,9.6,1.2c4.8,0.8,9,3.1,13,5.5c2.5,1.5,5.7,3.5,8.3,6.1c1.9,1.9,3.6,4.2,5.1,6.5c0.2,0.4,0.5,0.7,0.7,1.1
				c1.5,2.1,3,4.4,4.2,6.9c1.3,2.7,2.3,5.8,3.2,8.4c0.4,1.2,0.7,2.5,1.1,3.9c0.2,0.7,0.4,1.5,0.5,2.2c2,7.5,1.6,15.3,1.2,22.9
				c-0.1,2-0.2,4-0.3,6c-0.1,2.8-1.1,5.7-2,8.5c-0.3,0.9-0.6,1.8-0.9,2.6c-0.1,0.4-0.3,0.8-0.4,1.3c-0.8,2.7-1.6,5.4-3,7.8
				c-1.7,3-3.7,5.9-5.7,8.7c-0.7,1.1-1.5,2.1-2.2,3.2c-4,5.8-10.1,9.5-15.9,13.1l-0.9,0.6c-1.5,0.9-3.3,1.4-4.8,1.7l-0.9,0.2
				c-5.8,1.2-11.7,2.5-17.7,2.5c-1.1,0-2.2,0-3.3-0.1c-1.1-0.1-2.2-0.2-3.3-0.2c-4-0.3-8.1-0.6-12-1.4c-4.3-0.8-8.7-2-12.4-4.9
				c-1.2-0.9-2.5-1.8-3.7-2.6c-1.9-1.3-3.7-2.5-5.3-4c-2.2-2.1-4-4.8-5.7-7.3c-0.4-0.6-0.8-1.1-1.2-1.7c-1.4-2-2.9-4.2-3.8-6.5
				c-2.4-5.8-4.8-11.8-5.6-18.3c-1.4-11.3-1.2-21.3,0.7-30.5c1.5-7.4,3.9-13.3,7.2-18.1c0.4-0.5,0.8-1.1,1.1-1.6
				c2.1-3,4.2-6,6.6-8.8c3.1-3.7,7.1-6.8,12.7-9.8c7.8-4.1,16-5,23-5.4c0.7,0,1.3-0.2,1.8-0.4C833.8,1.1,834,1.1,834.2,1
				 M837.2,112.1c0.2,0,0.4,0,0.7,0c5.8-0.1,13.3-0.7,19.6-5c0.6-0.4,1.3-0.9,2-1.3c2.8-1.8,5.7-3.7,7.4-6.4
				c3.6-5.8,7-11.6,8.8-18.3c1.8-7,3-12.9,3.3-19c0.3-7-0.7-13.6-2.8-19.6c-0.2-0.5-0.3-0.9-0.5-1.4c-1-2.8-1.9-5.6-3.4-8.2
				c-2.4-4.2-5.9-9.4-11.3-13c-2.4-1.6-5.1-3-8.5-4.3c-5.6-2.2-10.8-3.3-15.9-3.3c-0.7,0-1.3,0-2,0.1c-4.5,0.3-8.7,1.6-12.8,3
				c-0.5,0.2-1,0.3-1.5,0.5c-5,1.6-8.9,4.8-12.5,7.9l-1,0.8c-2.4,2-4.5,4.9-6.5,9.1c-2.3,4.7-3.9,9-4.8,13.1
				c-0.9,3.8-1.2,7.6-1.4,10.7c-0.1,1.1-0.2,2-0.3,2.8l0,0.1l0,0.1c0,1.3,0.1,2.5,0.1,3.7c0.2,7.6,0.3,13.6,2.9,19.4
				c0.6,1.3,1.1,2.6,1.6,3.8c1.5,3.7,3,7.5,5.7,10.9c4.5,5.7,10.4,9.7,17.5,11.9C826.2,111.4,831.5,112.1,837.2,112.1 M834.1,0
				c-0.8,0.2-1.5,0.6-2.2,0.6c-8.1,0.4-16,1.6-23.4,5.5c-5,2.6-9.5,5.7-13,10c-2.8,3.3-5.2,7-7.7,10.5c-3.9,5.5-6.1,12-7.4,18.4
				c-2,10.1-2,20.4-0.7,30.8c0.8,6.6,3.2,12.6,5.7,18.6c1,2.4,2.5,4.6,3.9,6.7c2.2,3.2,4.3,6.5,7,9.2c2.6,2.6,6.1,4.3,9,6.6
				c3.8,3,8.3,4.2,12.9,5.1c5,1,10.3,1.2,15.4,1.6c1.1,0.1,2.3,0.1,3.4,0.1c6.4,0,12.6-1.4,18.8-2.7c1.8-0.4,3.6-0.9,5.1-1.8
				c6.3-3.8,12.8-7.6,17.2-13.9c2.7-3.9,5.6-7.7,7.9-11.9c1.6-2.9,2.5-6.1,3.5-9.3c1.2-3.8,2.9-7.6,3-11.5c0.3-9.7,1.5-19.5-1-29.2
				c-0.5-2-0.9-4.1-1.6-6.1c-1-2.9-2-5.8-3.3-8.6c-1.2-2.5-2.7-4.8-4.3-7c-1.9-2.7-3.7-5.5-6-7.7c-2.5-2.4-5.5-4.4-8.5-6.2
				c-4.2-2.5-8.5-4.8-13.3-5.6c-4.8-0.8-9.6-1.2-14.5-1.8c-0.7-0.1-1.4-0.4-2-0.6C836.6,0.1,835.3,0.1,834.1,0L834.1,0z
				 M837.2,111.1c-5.2,0-10.5-0.6-15.4-2.1c-6.7-2-12.4-5.8-17-11.6c-3.5-4.4-5-9.6-7.2-14.5c-3-6.6-2.6-13.5-2.9-22.7
				c0.3-3,0.5-8.3,1.6-13.4c1-4.4,2.7-8.8,4.7-12.8c1.6-3.2,3.6-6.5,6.3-8.7c4-3.3,7.9-6.8,13.2-8.6c4.7-1.5,9.2-3.1,14.1-3.4
				c0.6,0,1.3-0.1,1.9-0.1c5.4,0,10.5,1.3,15.5,3.3c3,1.2,5.7,2.4,8.3,4.2c4.8,3.2,8.2,7.8,11,12.7c1.7,2.9,2.7,6.2,3.8,9.4
				c2.2,6.2,3,12.7,2.7,19.3c-0.3,6.4-1.6,12.6-3.2,18.8c-1.7,6.7-5.2,12.4-8.7,18c-2,3.1-5.8,5.2-9,7.4c-5.7,3.9-12.4,4.7-19,4.8
				C837.6,111.1,837.4,111.1,837.2,111.1L837.2,111.1z"/>
		</g>
		<g>
			<path class="st0" d="M1081.6,320.4c-3,0-6.1-0.2-9.1-0.4l-1.1-0.1c-1.1-0.1-2.2-0.4-3.3-0.7c-0.5-0.1-0.9-0.3-1.4-0.4
				c-1-0.3-2-0.5-2.9-0.7c-2.3-0.5-4.7-1-6.6-2.2c-0.6-0.4-1.1-0.7-1.7-1c-3.7-2.3-7.6-4.6-10.1-8.5c-0.6-0.9-1.2-1.7-1.8-2.5
				c-1-1.5-2.1-3-3-4.5c-0.9-1.6-1.4-3.5-1.9-5.5c-2.9-10.8-4.2-21.9-3.7-33c0.1-2.1,0-3.1-0.6-3.7c-0.7-0.7-1.9-0.8-3.7-0.8
				c-1.1,0-2.2,0-3.4,0l-3.4,0c-2.2,0-4.4,0-6.7,0l-0.2,0c-0.8,0-1.2-0.1-1.4-0.3c-0.2-0.2-0.3-0.7-0.3-1.4c0.1-1.7,0.1-3.4,0.1-5.1
				c0-0.6,0-1.2,0-1.9h13.3c0.3,0,0.6,0,0.9,0c0.3,0,0.6,0,0.8,0c0.4,0,0.7,0,1.1,0.1c0.2,0,0.4,0,0.5,0c2,0,3-1.1,3-3.3
				c0-4.5,0-8.9-0.1-13.3c0-4.3,0-8.6-0.1-12.9c0-2,0-3.9-0.1-5.9c0-3.4-0.1-6.9,0-10.4c0-0.3,0.6-1.1,0.9-1.1
				c2.6-0.1,5.1-0.1,7.3-0.1l5.6,0l0,2.1c0,1.7,0,3.3,0,4.9c0.1,5.9,0.1,11.7,0.2,17.6c0.1,5.9,0.1,11.8,0.2,17.8
				c0,3.7,0.9,4.6,4.6,4.6l13.6-0.1c8.9-0.1,17.8-0.2,26.7-0.3c3.3,0,6.6-0.1,9.9-0.2l4.8-0.1c2.2,0,3.2-1.1,3.2-3.5
				c-0.1-10.8-0.1-21.8-0.1-32.4l0-10.4h14c0,1.8,0,3.7,0,5.5c0,3.9,0,7.9,0,11.8c0,4.5,0.1,9,0.2,13.4c0.1,3.4,0.1,6.7,0.2,10.1
				c0.1,4.8,0.6,4.9,4.5,5l1.1,0c1.9,0,3.9,0,5.8,0c1.3,0,6.1,0,7.3,0c0,3.2,0,6.3,0,9.7h-14.7c-3.2,0-3.4,0.2-3.5,3.2l0,0.3
				c-0.1,1.8-0.1,3.5-0.2,5.3c-0.2,6.4-0.4,12.9-1.1,19.4c-0.2,2.1-0.9,4.2-1.7,6.3c-0.5,1.6-1.1,3.2-1.5,4.8
				c-0.8,3.8-3.1,6.9-5.3,9.8c-0.7,0.9-1.4,1.8-2,2.8c-1,1.5-2.7,2.6-4.3,3.7c-0.7,0.4-1.3,0.9-2,1.4c-3.9,2.8-8.3,4-13,5.2
				c-0.7,0.2-1.4,0.4-2.2,0.6C1089.7,320,1086,320.4,1081.6,320.4z M1052.6,256.3c-1.2,0-2,0.3-2.5,0.8c-0.5,0.5-0.7,1.3-0.7,2.4
				c0,0.9,0.1,1.9,0.1,2.8c0.1,4.1,0.3,8.4,0,12.5c-0.4,6.6,1.2,13.1,4.8,19.9c4.1,7.7,10.5,12.2,18.5,13.1c2.8,0.3,5.3,0.5,7.7,0.5
				c4.4,0,8.4-0.5,12.2-1.7c6.4-1.9,11.5-6,15-11.9c2.8-4.8,4.2-10.4,4.1-17.2l0-0.1c-0.1-5.8-0.1-11.8,0.1-17.7
				c0-1.4-0.2-2.2-0.7-2.7c-0.5-0.5-1.3-0.8-2.6-0.8l-0.1,0c-4,0-8.3,0.1-13.9,0.1l-13.2,0l-0.5,0l-14,0
				C1061.9,256.3,1057.2,256.3,1052.6,256.3L1052.6,256.3z"/>
			<path d="M1043,201.2c1,0,2,0,3,0c0.7,0,1.4,0,2.1,0c0,0.5,0,1.1,0,1.6c0,1.7,0,3.3,0,4.9c0.1,5.9,0.1,11.7,0.2,17.6
				c0.1,5.9,0.1,11.8,0.2,17.7c0,4,1.2,5.1,5.1,5.1l0.2,0c4.5,0,8.9-0.1,13.4-0.1c8.8-0.1,17.8-0.2,26.7-0.3c3.3,0,6.6-0.1,9.7-0.2
				c1.6,0,3.3-0.1,4.9-0.1c2.5,0,3.7-1.3,3.7-4c-0.1-10.8-0.1-21.8-0.1-32.5l0-8.1v-1.7h13c0,1.7,0,3.3,0,5c0,3.9,0,7.9,0,11.8
				c0,4.5,0.1,9,0.2,13.4c0.1,3.4,0.1,6.8,0.2,10.1c0.1,4.8,0.6,5.4,5,5.5c0.3,0,0.7,0,1.1,0c1.7,0,3.5,0,5.8,0c1.3,0,2.6,0,3.8,0
				c1,0,2,0,3,0c0,2.8,0,5.6,0,8.7h-14.2c-3.5,0-3.9,0.4-4,3.7l0,0.3c-0.1,1.7-0.1,3.5-0.2,5.2c-0.2,6.4-0.4,12.9-1.1,19.4
				c-0.2,2.1-0.9,4.1-1.6,6.2c-0.5,1.6-1.1,3.2-1.5,4.9c-0.8,3.7-3,6.6-5.2,9.6c-0.7,0.9-1.4,1.8-2,2.8c-1,1.4-2.5,2.4-4.2,3.5
				c-0.7,0.4-1.3,0.9-2,1.4c-3.8,2.8-8.2,3.9-12.8,5.1c-0.7,0.2-1.4,0.4-2.2,0.6c-3.4,0.9-7,1.3-11.4,1.3c-3,0-6.1-0.2-9-0.4
				l-1.1-0.1c-1-0.1-2.1-0.4-3.2-0.7c-0.5-0.1-0.9-0.3-1.4-0.4c-1-0.3-2-0.5-3-0.7c-2.4-0.5-4.6-1-6.4-2.1c-0.6-0.3-1.1-0.7-1.7-1
				c-3.7-2.3-7.5-4.6-10-8.3c-0.6-0.9-1.2-1.7-1.8-2.6c-1-1.4-2.1-2.9-2.9-4.5c-0.9-1.6-1.4-3.4-1.9-5.3
				c-2.9-10.8-4.1-21.8-3.7-32.9c0.1-1.9,0.1-3.2-0.8-4.1c-0.8-0.8-2.1-0.9-4.1-0.9c0,0,0,0,0,0c-1.1,0-2.2,0-3.4,0l-1.7,0l-1.7,0
				c-2.1,0-4.4,0-6.8,0l-0.1,0c-0.8,0-1-0.1-1.1-0.2c0,0-0.2-0.2-0.1-1c0.1-1.7,0.1-3.4,0.1-5.2c0-0.4,0-0.9,0-1.3h12.8
				c0.3,0,0.6,0,0.9,0c0.3,0,0.6,0,0.8,0c0.4,0,0.7,0,1.1,0.1c0.2,0,0.4,0,0.6,0c1.3,0,3.5-0.5,3.5-3.8c0-4.4,0-8.7-0.1-13.1
				c0-4.4,0-8.7-0.1-13.1c0-2,0-4-0.1-5.9c0-3.4-0.1-6.9,0-10.4c0.1-0.2,0.3-0.5,0.5-0.7C1038.4,201.3,1040.9,201.2,1043,201.2
				 M1094.5,255.8c-2.3,0-4.6,0-6.9,0c-2,0-3.9,0-5.9,0v0h-1l-7,0l-7,0c-5.7,0-10,0-14,0c-0.8,0-2,0.1-2.8,0.9
				c-0.6,0.6-0.9,1.5-0.9,2.8c0,0.9,0.1,1.9,0.1,2.8c0.1,4.1,0.3,8.3,0,12.4c-0.4,6.6,1.2,13.2,4.8,20.1
				c4.1,7.8,10.7,12.4,18.9,13.4c2.8,0.3,5.3,0.5,7.7,0.5c4.5,0,8.5-0.6,12.3-1.7c6.6-2,11.7-6.1,15.3-12.1
				c2.9-4.9,4.3-10.6,4.2-17.4c-0.1-5.8-0.1-11.8,0.1-17.7c0-1.1-0.1-2.3-0.9-3.1c-0.8-0.8-2-0.9-3-0.9l-0.1,0
				C1104.3,255.8,1100,255.8,1094.5,255.8 M1043,200.2c-2.5,0-4.9,0-7.4,0.1c-0.5,0-1.3,1-1.3,1.6c-0.1,5.5,0.1,10.9,0.1,16.3
				c0.1,8.7,0.1,17.5,0.1,26.2c0,1.8-0.7,2.8-2.5,2.8c-0.1,0-0.3,0-0.5,0c-0.4,0-0.8-0.1-1.1-0.1c-0.6,0-1.2,0-1.7,0
				c-4.6,0-9.1,0-13.8,0c0,2.7,0.1,5.1-0.1,7.5c-0.1,1.8,0.6,2.3,2.2,2.3c0.1,0,0.1,0,0.2,0c2.2,0,4.5,0,6.7,0c1.1,0,2.2,0,3.4,0
				c1.1,0,2.2,0,3.4,0c3.7,0,4,0.2,3.8,4c-0.5,11.3,0.8,22.3,3.7,33.2c0.5,1.9,1,3.9,2,5.6c1.4,2.5,3.2,4.7,4.8,7.1
				c3,4.5,7.6,7,12,9.6c2.7,1.7,6.4,2,9.6,2.9c1.6,0.4,3.2,1,4.8,1.2c3.4,0.2,6.8,0.4,10.2,0.4c3.9,0,7.8-0.3,11.7-1.3
				c5.3-1.4,10.8-2.5,15.3-5.8c2.2-1.6,4.9-3,6.4-5.2c2.8-4,6.3-7.7,7.4-12.8c0.8-3.8,2.8-7.4,3.1-11.2c0.8-8.2,0.9-16.4,1.3-24.7
				c0.1-3.1,0-3.1,3-3.1c5,0,10.1,0,15.2,0c0-3.8,0-7.2,0-10.7c-2.7,0-5.3,0-7.8,0c-1.9,0-3.8,0-5.8,0c-4.7-0.1-5,0.3-5.1-4.5
				c-0.1-7.9-0.3-15.7-0.4-23.6c-0.1-5.9,0-11.8,0-17.8c-5,0-9.8,0-15,0c0,1,0,1.8,0,2.7c0,13.5,0,27.1,0.1,40.6c0,2.1-0.7,3-2.7,3
				c-4.9,0.1-9.8,0.2-14.6,0.2c-13.4,0.2-26.8,0.3-40.1,0.4c-0.1,0-0.1,0-0.2,0c-3.4,0-4-0.7-4.1-4.1c-0.1-11.8-0.2-23.6-0.3-35.3
				c0-2.5,0-4.9,0-7.5C1047,200.3,1045,200.2,1043,200.2L1043,200.2z M1094.5,256.8c4.6,0,9.2,0,13.8-0.1c0,0,0.1,0,0.1,0
				c2.3,0,2.9,0.7,2.8,3c-0.2,5.9-0.1,11.8-0.1,17.8c0.1,6-1,11.7-4.1,16.9c-3.4,5.7-8.2,9.7-14.7,11.7c-4,1.2-8,1.6-12,1.6
				c-2.5,0-5.1-0.2-7.6-0.5c-8.3-1-14.3-5.8-18.1-12.9c-3.2-6-5.2-12.5-4.7-19.6c0.3-5.1,0.1-10.3-0.1-15.4c-0.1-2,0.8-2.7,2.7-2.7
				c4.7,0,9.4,0,14,0c4.7,0,9.4,0,14,0v0C1085.2,256.8,1089.9,256.8,1094.5,256.8L1094.5,256.8z"/>
		</g>
		<g>
			<path class="st0" d="M279.5,126.5c-3.1,0-6.2-0.2-9.1-0.3c-3.9-0.2-7.7-0.8-11.5-1.6c-1.3-0.3-2.7-0.9-3.9-1.5
				c-1-0.5-2.1-1-3.2-1.3c-4.9-1.5-8.8-4.7-12.7-7.8l-0.3-0.2c-2.1-1.7-3.7-4-5.3-6.3c-0.5-0.7-1-1.5-1.5-2.2
				c-1.2-1.6-2.5-3.6-3.5-5.7c-1.1-2.4-2-5-2.8-7.5l-0.3-0.8l-0.2-0.5c-0.9-2.6-1.9-5.3-2.6-8c-1.9-7.2-1.6-14.8-1.3-22
				c0.1-4,0.4-8.2,1.4-12.2c1.7-6.3,3.6-13,7.5-19.2c4.1-6.5,8.2-11.3,13.1-15.3c4.2-3.5,9.3-5.5,14.2-7.3c5-1.9,10.4-2.8,16.5-2.8
				c1.1,0,2.3,0,3.5,0.1l0.6,0L278,3.4c1.6,0.2,3.1,0.3,4.7,0.5c3.9,0.4,8,0.8,12,1.5c1.9,0.4,3.8,1.1,5.7,2
				c1.1,0.5,2.1,0.9,3.2,1.3c4.9,1.7,9.4,4.7,13.6,9c2.6,2.7,5.1,5.8,8,10.3c1.5,2.3,2.9,5.2,4.3,8.7c3.5,9.3,5.2,19.4,4.9,30
				c-0.2,6.9-1.5,14-4,21.7c-1.2,3.7-3,7.3-4.8,10.7l-0.6,1.2c-3.3,6.4-8.3,12-15.3,17c-2.9,2.1-5.9,3.3-9.1,4.7
				c-0.9,0.4-1.9,0.8-2.8,1.2C292.6,125.5,287,126.5,279.5,126.5z M277.5,16.2c-4.2,0-7.9,0.4-11.3,1.2c-4.5,1.1-8.9,3.2-13,6.3
				c-6.3,4.6-10.1,9.4-12,14.9c-0.5,1.3-1,2.7-1.6,3.9c-1.1,2.6-2.3,5.4-2.7,8.2c-0.9,6.4-1.3,13.4-1.2,21.6c0,3.5,0.9,6.9,1.8,10.3
				l0.4,1.5c0.5,1.9,1.2,3.7,2,5.4c0.3,0.6,0.5,1.2,0.8,1.9c2.3,5.7,5.5,10.3,9.7,13.8c3.5,3,8,6.1,13.9,7.2c1.3,0.2,2.7,0.5,4,0.8
				c3.2,0.7,6.4,1.4,9.7,1.4c0,0,0,0,0,0c0.7,0,1.5,0,2.2-0.1c2.3-0.2,4.5-0.7,6.7-1.2c1.6-0.4,3.3-0.7,4.9-1
				c3.8-0.6,7.2-2.1,10-4.5c6.3-5.3,10.9-12.4,14.1-21.5c2.6-7.6,3.9-15.3,3.7-22.9c0-6.6,0-13.5-3-20c-0.5-1.1-1-2.3-1.4-3.4
				c-0.8-2-1.6-4.1-2.8-5.9c-1.2-1.8-2.7-3.4-4.1-4.9c-1-1.1-2-2.2-3-3.3c-1.3-1.6-3-2.6-4.6-3.6c-0.8-0.5-1.6-0.9-2.3-1.5
				c-3.5-2.5-7.7-4-12.9-4.4C283.1,16.4,280.3,16.2,277.5,16.2z"/>
			<path d="M278.6,4c1.4,0.2,2.7,0.3,4.1,0.4c3.9,0.4,8,0.8,11.9,1.5c1.9,0.3,3.7,1.1,5.6,2c1.1,0.5,2.2,0.9,3.3,1.3
				c4.8,1.7,9.2,4.6,13.4,8.9c2.6,2.6,5,5.8,7.9,10.2c1.5,2.3,2.9,5.1,4.2,8.6c3.5,9.3,5.1,19.3,4.8,29.8c-0.2,6.8-1.5,13.9-4,21.5
				c-1.2,3.7-3,7.2-4.8,10.7l-0.6,1.2c-3.3,6.3-8.2,11.8-15.1,16.8c-2.8,2-5.8,3.3-9,4.6c-0.9,0.4-1.9,0.8-2.8,1.2
				c-5.1,2.2-10.6,3.2-18,3.2c-3.1,0-6.2-0.2-9-0.3c-3.9-0.2-7.7-0.8-11.4-1.5c-1.3-0.3-2.5-0.9-3.8-1.5c-1-0.5-2.1-1-3.2-1.3
				c-4.8-1.5-8.7-4.7-12.5-7.7l-0.3-0.2c-2-1.6-3.6-4-5.2-6.2c-0.5-0.7-1-1.5-1.6-2.2c-1.2-1.6-2.5-3.5-3.5-5.6
				c-1.1-2.4-2-5-2.8-7.5l-0.3-0.8l-0.2-0.5c-0.9-2.6-1.9-5.3-2.6-8c-1.8-7.2-1.6-14.6-1.3-21.9c0.1-3.9,0.4-8.1,1.4-12.1
				c1.6-6.3,3.6-13,7.4-19c4-6.4,8.2-11.2,13-15.1c4.2-3.4,9.2-5.4,14.1-7.2c4.9-1.8,10.2-2.7,16.3-2.7c1.1,0,2.3,0,3.5,0.1l1.2,0.1
				L278.6,4 M277.9,115.2c0.8,0,1.5,0,2.2-0.1c2.3-0.2,4.6-0.7,6.8-1.2c1.6-0.4,3.3-0.7,4.9-1c3.9-0.6,7.4-2.2,10.3-4.6
				c6.4-5.4,11-12.5,14.2-21.7c2.7-7.6,3.9-15.4,3.7-23.1c0-6.7,0-13.7-3-20.2c-0.5-1.1-1-2.2-1.4-3.3c-0.8-2-1.6-4.1-2.8-6
				c-1.2-1.8-2.7-3.4-4.2-5c-1-1.1-2-2.2-2.9-3.3c-1.4-1.7-3.1-2.7-4.7-3.7c-0.8-0.5-1.5-0.9-2.3-1.4c-3.6-2.6-7.9-4.1-13.2-4.5
				c-2.4-0.2-5.1-0.4-8-0.4c-4.2,0-8,0.4-11.4,1.2c-4.5,1.1-9,3.3-13.2,6.4c-6.4,4.7-10.2,9.5-12.2,15.1c-0.5,1.3-1,2.6-1.6,3.9
				c-1.1,2.7-2.3,5.4-2.7,8.3c-0.9,6.4-1.3,13.5-1.2,21.6c0,3.5,0.9,7,1.8,10.4c0.1,0.5,0.3,1,0.4,1.5c0.5,1.9,1.3,3.7,2,5.5
				c0.3,0.6,0.5,1.2,0.8,1.9c2.3,5.7,5.6,10.5,9.9,14c3.6,3,8.1,6.2,14.1,7.3c1.3,0.2,2.6,0.5,3.9,0.8
				C271.2,114.5,274.5,115.2,277.9,115.2 M277.5,2.9c0,0.2,0,0.4,0,0.6c-1.2-0.1-2.3-0.1-3.5-0.1c-5.7,0-11.2,0.7-16.7,2.8
				c-5.1,1.9-10.1,3.9-14.3,7.4c-5.3,4.3-9.5,9.5-13.2,15.4c-3.8,6.1-5.8,12.6-7.5,19.3c-1,3.9-1.3,8.2-1.5,12.3
				c-0.3,7.4-0.5,14.9,1.4,22.2c0.7,2.9,1.8,5.7,2.7,8.6c1,2.8,1.9,5.7,3.1,8.4c0.9,2,2.2,3.9,3.6,5.8c2.2,3,4.1,6.4,6.9,8.6
				c4,3.2,8,6.6,13.1,8.2c2.4,0.8,4.7,2.2,7.2,2.8c3.8,0.8,7.7,1.3,11.6,1.6c3,0.2,6.1,0.3,9.1,0.3c6.2,0,12.4-0.7,18.4-3.3
				c4.1-1.8,8.3-3.2,12.1-5.9c6.5-4.6,11.8-10.1,15.4-17.1c2-3.9,4.2-7.8,5.5-12c2.3-7.1,3.8-14.3,4-21.8
				c0.3-10.4-1.2-20.5-4.9-30.2c-1.2-3-2.5-6.1-4.3-8.8c-2.4-3.7-5-7.3-8.1-10.4c-3.9-4-8.4-7.3-13.8-9.2c-3-1.1-5.9-2.7-9-3.3
				C289.1,4,283.3,3.6,277.5,2.9L277.5,2.9z M277.9,114.2c-4.6,0-9-1.3-13.6-2.1c-5.5-1-9.7-3.8-13.6-7.1c-4.3-3.6-7.5-8.3-9.6-13.7
				c-1-2.4-2.1-4.8-2.7-7.2c-1-3.9-2.1-7.8-2.1-11.7c-0.1-7.2,0.2-14.4,1.2-21.5c0.6-4.1,2.8-8,4.2-12.1c2.2-6.3,6.9-10.9,11.9-14.6
				c3.7-2.7,8-5.1,12.9-6.2c3.7-0.9,7.4-1.2,11.2-1.2c2.7,0,5.3,0.2,7.9,0.4c4.3,0.3,8.8,1.5,12.7,4.3c2.2,1.6,4.9,2.6,6.8,5
				c2.2,2.9,5.1,5.2,7,8.2c1.8,2.8,2.7,6.1,4.2,9.2c2.9,6.2,3,12.8,3,19.8c0.2,7.6-1,15.2-3.7,22.7c-2.9,8.4-7.2,15.6-13.9,21.3
				c-2.8,2.4-6.1,3.8-9.8,4.4c-3.9,0.6-7.7,1.8-11.6,2.2C279.3,114.1,278.6,114.2,277.9,114.2L277.9,114.2z"/>
		</g>
		<g>
			<path class="st0" d="M919.4,119.5c-3.3,0-3.3,0-3.4-4.6c-0.1-9.2-0.1-18.4-0.2-27.5c-0.1-9.2-0.1-18.3-0.2-27.5
				c-0.1-17.9-0.3-35.7-0.5-53.5l0-2.4c0,0,0-0.1,0.1-0.4l7.1,0c1.3,0,2.5,0,3.8,0c4.5-0.1,8.9-0.1,13.4-0.2
				c8.8-0.1,17.8-0.3,26.7-0.3c5.5,0,10.8,0.3,15.7,1c1.7,0.2,3.4,0.9,5.1,1.7c0.9,0.4,1.8,0.8,2.7,1.1c4.6,1.6,8.5,4.6,11.9,9.1
				c2.4,3.1,3.3,7,3.8,10c0.9,4.9,1,9.8,0.3,14.8c-0.8,6.7-3.5,11.9-8.3,16.1c-1.1,0.9-2.3,1.8-3.5,2.6c-0.6,0.4-1.2,0.9-1.8,1.3
				c-0.3,0.2-0.5,0.4-0.7,0.7c-0.1,0.1-0.3,0.3-0.4,0.4l-0.5,0.4l0.5,0.4c0.9,0.6,1.8,1.2,2.7,1.8c1.9,1.2,3.7,2.4,5.2,3.8
				c3.3,2.9,4.9,7,5.2,12.9c0.2,4,0.4,8,0.5,11.9c0.2,4.7,0.4,9.5,0.6,14.3c0.2,4,1.8,7.3,4.7,10c0.4,0.4,0.7,0.8,1.1,1.4
				c0.1,0.2,0.2,0.4,0.4,0.5c-0.1,0-0.2,0-0.3,0c-0.7,0.1-1.1,0.1-1.5,0.1c-2,0-3.9,0-5.8,0c-2.9,0-5.9,0-8.8,0l-0.2,0
				c-1,0-1.4-0.1-1.7-1.4c-1.9-8.9-2.2-18.1-2.5-27c0-1.4-0.1-2.8-0.1-4.2c-0.2-5.5-2.2-10.1-5.8-13.5c-1.7-1.6-4.6-2.9-7.6-3.3
				c-5.1-0.8-10.5-1.3-16-1.5c-3.8-0.1-7.9-0.1-13.2-0.1c-2.4,0-4.9,0-7.3,0c-2.5,0-4.9,0-7.4,0c-3.2,0-3.9,0.7-3.9,3.8
				c0.1,9.6,0.2,19.2,0.3,28.8l0.1,9.5c0,2,0,4,0,6.1l0,2.9l-5.7,0c-1,0-2.1,0-3.1,0C920.2,119.5,919.8,119.5,919.4,119.5z
				 M932.8,15c-1.5,0-2.5,0.3-3.2,1c-0.7,0.7-1,1.7-1,3.3c0.1,11.5,0.2,23,0.2,34.6c0,3.3,0.4,3.6,3.8,3.6c6.4,0,12.8,0,19.2,0h0.5
				v-0.2c1.6,0,3.2,0,4.7,0c1.7,0,3.5,0,5.2,0c2.8,0,5.2,0,7.4-0.1c5-0.2,11.5-0.9,16.6-5.7c0.2-0.2,0.4-0.4,0.6-0.6
				c0.8-0.7,1.7-1.5,2.2-2.4c2.7-5.4,3.6-11.2,2.7-17.2l-0.1-0.7c-0.3-2.1-0.6-4.4-1.9-6c-2.1-2.8-4.6-5.8-7.7-7.1
				c-3.7-1.5-8.2-2.3-13.4-2.4C964,15,959.1,15,952.8,15c-3,0-5.9,0-8.9,0c-3,0-5.9,0-8.9,0L932.8,15z"/>
			<path d="M966.2,3.6L966.2,3.6c5.5,0,10.8,0.3,15.6,1c1.7,0.2,3.3,0.9,5,1.7c0.9,0.4,1.8,0.8,2.7,1.1c4.5,1.6,8.3,4.5,11.7,8.9
				c2.3,3,3.2,6.8,3.7,9.8c0.8,4.9,1,9.7,0.3,14.7c-0.8,6.5-3.4,11.7-8.2,15.8c-1.1,0.9-2.2,1.7-3.4,2.6c-0.6,0.4-1.2,0.9-1.9,1.3
				c-0.3,0.2-0.5,0.5-0.8,0.7c-0.1,0.1-0.2,0.2-0.4,0.4l-0.9,0.8l1,0.7c0.9,0.6,1.8,1.2,2.7,1.8c1.9,1.2,3.6,2.4,5.2,3.7
				c3.2,2.8,4.8,6.8,5.1,12.6c0.2,4,0.4,8,0.5,11.9c0.2,4.7,0.4,9.5,0.6,14.3c0.2,4.1,1.9,7.6,4.8,10.3c0.3,0.3,0.6,0.7,0.9,1.2
				c-0.4,0-0.7,0.1-0.9,0.1c-2,0-3.9,0-5.9,0c-2.9,0-5.9,0-8.8,0l-0.2,0c-0.8,0-1,0-1.2-1c-1.9-8.8-2.2-18-2.5-26.9
				c0-1.4-0.1-2.8-0.1-4.2c-0.2-5.7-2.2-10.3-6-13.9c-1.8-1.7-4.7-3-7.8-3.5c-5.1-0.8-10.6-1.3-16.1-1.5c-3.8-0.1-7.9-0.1-13.2-0.1
				c-2.4,0-4.9,0-7.3,0c-2.4,0-4.9,0-7.3,0c-3.5,0-4.4,0.9-4.4,4.3c0.1,9.6,0.2,19.3,0.3,28.7l0.1,9.6c0,2,0,4,0,6.1
				c0,0.8,0,1.6,0,2.4c-0.7,0-1.4,0-2.2,0c-1,0-2.1,0-3.1,0c-1,0-2.1,0-3.1,0l-0.1,0c-0.5,0-0.9,0-1.3,0c-1.4,0-2.3-0.1-2.5-0.4
				c-0.3-0.4-0.3-1.9-0.3-3.7c-0.1-9.2-0.1-18.4-0.2-27.5c-0.1-9.2-0.1-18.3-0.2-27.5c-0.2-18.5-0.3-37.2-0.5-55.4l0-0.4
				c1,0,1.9,0,2.9,0c1.3,0,2.5,0,3.8,0c1.3,0,2.5,0,3.8,0c4.5-0.1,8.9-0.1,13.4-0.2C948.2,3.8,957.3,3.7,966.2,3.6 M935,14.5l-2.2,0
				c-1.6,0-2.8,0.4-3.5,1.1c-0.8,0.8-1.1,1.9-1.1,3.6l0,0.2c0.1,11.3,0.2,22.9,0.2,34.4c0,3.6,0.6,4.1,4.3,4.1c6.4,0,12.9,0,19.2,0
				h1v-0.2c1.4,0,2.8,0,4.2,0c1.7,0,3.5,0,5.2,0c2.8,0,5.2,0,7.4-0.1c5.1-0.2,11.7-1,16.9-5.8c0.2-0.2,0.4-0.4,0.6-0.5
				c0.9-0.8,1.8-1.5,2.3-2.6c2.8-5.5,3.7-11.4,2.7-17.5l-0.1-0.7c-0.3-2.1-0.7-4.5-2-6.3c-2.2-2.8-4.7-5.9-8-7.2
				c-3.8-1.5-8.3-2.4-13.6-2.5c-4.6-0.1-9.5-0.2-15.8-0.2c-3,0-5.9,0-8.9,0C940.9,14.5,937.9,14.5,935,14.5 M966.2,2.6
				c-13.4,0-26.7,0.3-40.1,0.5c-1.3,0-2.5,0-3.8,0c-2.5,0-5.1,0-7.6,0c0,0.7-0.1,0.8-0.1,0.9c0.2,18.6,0.4,37.3,0.5,55.9
				c0.2,18.4,0.3,36.7,0.4,55c0,4.7,0.1,5.1,3.9,5.1c0.4,0,0.8,0,1.3,0c1,0,2.1,0,3.1,0c2.1,0,4.1,0,6.2,0c0-3.5,0-6.5,0-9.5
				c-0.1-12.7-0.3-25.5-0.4-38.2c0-2.9,0.5-3.3,3.4-3.3c4.9,0,9.8,0,14.7,0c4.4,0,8.8,0,13.2,0.1c5.3,0.1,10.7,0.6,16,1.5
				c2.6,0.4,5.5,1.5,7.3,3.2c3.7,3.4,5.5,7.9,5.7,13.2c0.4,10.5,0.4,20.9,2.7,31.2c0.3,1.6,1,1.8,2.2,1.8c0.1,0,0.1,0,0.2,0
				c4.9-0.1,9.8,0,14.7-0.1c0.7,0,1.3-0.1,2.7-0.2c-0.9-1.2-1.3-2.1-2-2.7c-2.9-2.6-4.3-5.9-4.5-9.6c-0.5-8.7-0.7-17.4-1.1-26.1
				c-0.3-5-1.5-9.8-5.4-13.3c-2.3-2.1-5.1-3.6-8-5.6c0.3-0.3,0.7-0.7,1.1-1c1.8-1.3,3.6-2.5,5.3-4c5-4.3,7.7-9.8,8.5-16.4
				c0.6-5,0.5-10-0.3-15c-0.6-3.7-1.6-7.3-3.9-10.2c-3.2-4.2-7.1-7.5-12.1-9.2c-2.7-0.9-5.2-2.5-7.9-2.8
				C976.8,2.9,971.4,2.6,966.2,2.6L966.2,2.6z M935,15.5c5.9,0,11.9,0,17.8,0c5.3,0,10.5,0,15.8,0.2c4.5,0.1,9.2,0.8,13.3,2.4
				c3,1.2,5.5,4.2,7.5,6.9c1.3,1.7,1.5,4.3,1.9,6.5c0.9,5.9,0.1,11.6-2.6,16.9c-0.6,1.1-1.7,2-2.7,2.9c-4.6,4.2-10.3,5.4-16.3,5.5
				c-2.4,0.1-4.9,0.1-7.3,0.1c-3.5,0-7,0-10.5,0c0,0.1,0,0.1,0,0.2c-6.4,0-12.8,0-19.2,0c-3.1,0-3.2-0.1-3.3-3.1
				c-0.1-11.5-0.1-23-0.2-34.6c0-2.7,0.9-3.8,3.6-3.8C933.5,15.5,934.2,15.5,935,15.5L935,15.5z"/>
		</g>
		<g>
			<path class="st0" d="M110.3,123.2l0-4.7c0-3.4,0-6.8,0-10.2c0-3.6,0.1-7.2,0.1-10.9c0.1-6.4,0.1-13.1,0.1-19.7
				c-0.1-11-0.2-22.2-0.3-33c-0.1-5.5-0.1-11-0.2-16.4c0-2,0-3.9,0-5.9c0-4.2,0-8.6-0.2-12.9c0-0.8,0.1-1.3,0.4-1.6
				c0.3-0.3,0.7-0.4,1.6-0.4l0.2,0c4.1,0,8.1,0,12.1,0c2.8,0,5.7,0,8.5,0c3.9,0,7.8,0,11.7-0.1c5,0,10-0.1,15-0.1l2.6,0l3.4,0
				c3.1,0,6.6,0,10,0.5c5.2,0.7,9.4,2.2,13.1,4.5c4.1,2.5,7,5.3,8.9,8.5c3.4,5.7,4.8,11.1,4.2,16.4c-0.1,1.1-0.2,2.3-0.2,3.4
				c-0.1,2.3-0.2,4.6-0.8,6.7c-1.9,6.9-5.8,12.2-11.6,15.7l-0.3,0.2c-0.5,0.3-1,0.6-1.4,1c-0.4,0.5-0.7,1-0.9,1.4
				c-0.1,0.2-0.2,0.4-0.3,0.5l-0.3,0.4l0.5,0.2c0.3,0.2,0.6,0.3,0.9,0.5c0.3,0.2,0.6,0.3,0.9,0.5c3.9,2,8.1,4.9,9.7,10.4
				c1.9,6.5,2.1,13.2,2.3,19.8c0,1.1,0.1,2.3,0.1,3.4c0.2,5.5,0.7,9.9,1.5,13.8c0.5,2.4,1.4,5,4.1,6.2c0.2,0.1,0.4,0.5,0.6,0.9
				c0,0.1,0.1,0.1,0.1,0.2c0,0,0,0,0,0c-0.4,0.1-0.8,0.3-1.2,0.3c-2.3,0-4.5,0-6.7,0.1c-2.6,0-5.4,0-8.1,0.1l-0.2,0
				c-1.6,0-2.2-0.6-2.3-2.4c-0.2-4.5-0.5-8.9-0.7-13.4c-0.2-4.5-0.5-8.9-0.7-13.4c-0.3-6-1.7-10.6-4.3-14.2
				c-3.1-4.3-7.9-6.9-13.3-7.1c-7.8-0.3-15.7-0.3-23.4-0.3c-2.9,0-5.7,0-8.6,0l-0.9,0c-0.8,0-1.7,0-2.6,0c-0.8,0-1.7,0-2.5,0
				c-1.2,0-2.2,0-3.1-0.1c-0.1,0-0.2,0-0.3,0c-2.2,0-3.1,1-3.1,3.4c0.1,12.3,0.1,24.9,0.2,37.1l0,9.3c0,0.4,0,0.7,0,1.1l0,0H110.3z
				 M150.4,61.4c4.5,0,8.5,0,12.2,0.1c0.2,0,0.4,0,0.6,0c6.1,0,11.8-1.6,16.7-4.7c4-2.5,6.4-6.4,7-11.3c0.8-6.9,1.1-13.6-3.8-19.8
				c-3.1-3.9-7.2-5.2-11.2-6.5l-1-0.3c-1.9-0.6-3.9-0.7-5.8-0.7c-0.5,0-1.1,0-1.6,0c-0.5,0-1,0-1.6,0c-1.9,0-3.9,0.1-5.8,0.2
				c-1.7,0.1-3.5,0.2-5.3,0.2c-4.7,0-9.5,0.1-14.2,0.1c-3.3,0-6.2,0-9-0.1l-0.1,0c-1.3,0-2.2,0.3-2.8,0.8c-0.6,0.6-0.8,1.4-0.8,2.7
				c0,4.5,0,8.9,0,13.4l0,21.3c0,4.1,0.2,4.7,4,4.7l0.6,0c3.2,0,6.3,0,9.5,0C142.1,61.5,146.2,61.4,150.4,61.4z"/>
			<path d="M165.3,7.9c3,0,6.6,0,9.9,0.5c5.2,0.7,9.3,2.1,12.9,4.4c4,2.5,6.8,5.2,8.7,8.3c3.3,5.6,4.7,10.9,4.2,16.1
				c-0.1,1.1-0.2,2.3-0.2,3.4c-0.1,2.3-0.2,4.5-0.8,6.6c-1.8,6.8-5.7,12-11.4,15.4l-0.3,0.2c-0.5,0.3-1.1,0.6-1.6,1.1
				c-0.4,0.5-0.7,1-1,1.5c-0.1,0.2-0.2,0.3-0.3,0.5l-0.5,0.9l0.9,0.5c0.3,0.2,0.6,0.3,0.8,0.5c0.3,0.2,0.6,0.3,0.9,0.5
				c3.8,2,7.9,4.7,9.5,10.1c1.9,6.4,2.1,13.2,2.3,19.7c0,1.1,0.1,2.3,0.1,3.4c0.2,5.5,0.7,9.9,1.5,13.9c0.5,2.4,1.4,5.3,4.4,6.6
				c0.1,0.1,0.1,0.2,0.2,0.3c-0.2,0.1-0.4,0.1-0.5,0.1c-2.2,0-4.5,0-6.7,0.1c-2.6,0-5.4,0-8.1,0.1l-0.1,0c-1.3,0-1.7-0.4-1.8-1.9
				c-0.2-4.5-0.5-8.9-0.7-13.4c-0.2-4.5-0.5-8.9-0.7-13.4c-0.3-6.1-1.7-10.8-4.4-14.5c-3.2-4.4-8.1-7.1-13.7-7.3
				c-7.8-0.3-15.7-0.3-23.4-0.3c-2.9,0-5.7,0-8.6,0c-0.3,0-0.6,0-0.9,0c-0.9,0-1.7,0-2.6,0c-0.8,0-1.7,0-2.5,0c-1.2,0-2.2,0-3.1-0.1
				c-0.1,0-0.2,0-0.3,0c-2.5,0-3.6,1.2-3.6,3.9c0.1,12.4,0.1,24.9,0.2,37.1l0,9.3l0,0.1l0,0.1c0,0.2,0,0.4,0,0.6h-13.3
				c0-1.4,0-2.8,0-4.2c0-3.5,0-6.8,0-10.2c0-3.6,0.1-7.3,0.1-10.9c0.1-6.4,0.1-13.1,0.1-19.6c-0.1-11-0.2-22.2-0.3-33
				c-0.1-5.5-0.1-11-0.2-16.5c0-2,0-3.9,0-5.9c0-4.2,0-8.6-0.2-12.9c0-0.9,0.1-1.2,0.2-1.2c0.1-0.2,0.6-0.2,1.3-0.2l0.2,0
				c3.9,0,7.8,0,12.1,0c2.9,0,5.7,0,8.6,0c3.9,0,7.8,0,11.7-0.1c4.9,0,10-0.1,14.9-0.1c0.9,0,1.8,0,2.6,0l1.7,0L165.3,7.9
				 M136.5,18.3c-3.3,0-6.2,0-9-0.1l-0.1,0c-0.9,0-2.2,0.1-3.1,1c-0.9,0.9-0.9,2.1-0.9,3c0,4.5,0,9,0,13.4l0,4.4v16.8
				c0,4.3,0.4,5.2,4.5,5.2l0.6,0c3.2,0,6.3,0,9.5,0c4.1,0,8.3,0,12.4,0c4.6,0,8.5,0,12.2,0.1c0.2,0,0.4,0,0.6,0c6.2,0,12-1.6,17-4.8
				c4.1-2.6,6.6-6.7,7.2-11.7c0.8-7,1.1-13.8-3.9-20.1c-3.2-4-7.4-5.3-11.5-6.6c-0.3-0.1-0.7-0.2-1-0.3c-2-0.6-4.1-0.7-5.9-0.7
				c-0.5,0-1.1,0-1.6,0c-0.5,0-1,0-1.6,0c-1.9,0-3.9,0.1-5.8,0.2c-1.7,0.1-3.5,0.2-5.2,0.2C146.1,18.2,141.3,18.3,136.5,18.3
				 M165.3,6.9c-1.1,0-2.2,0-3.4,0c-0.9,0-1.8,0-2.6,0c-8.9,0-17.8,0.1-26.7,0.1c-2.9,0-5.7,0-8.6,0c-4,0-8.1,0-12.1,0
				c-0.1,0-0.1,0-0.2,0c-1.7,0-2.5,0.4-2.5,2.5c0.2,6.2,0.1,12.5,0.2,18.7c0.2,16.5,0.4,33,0.5,49.5c0.1,10.2-0.1,20.3-0.2,30.5
				c0,5.1,0,10.2,0,15.5c5.2,0,10,0,15.2,0c0-0.7,0-1.2,0-1.7c-0.1-15.5-0.1-30.9-0.2-46.4c0-2.1,0.7-2.9,2.6-2.9c0.1,0,0.2,0,0.3,0
				c1,0,2.1,0.1,3.2,0.1c1.7,0,3.4,0,5.1,0c0.3,0,0.6,0,0.9,0c10.6,0.1,21.3-0.1,32,0.3c5.2,0.2,9.9,2.6,12.9,6.9
				c2.9,4,3.9,8.9,4.2,13.9c0.5,8.9,1,17.9,1.5,26.8c0.1,1.9,0.8,2.8,2.8,2.8c0.1,0,0.1,0,0.2,0c4.9-0.1,9.9-0.1,14.8-0.1
				c0.7,0,1.3-0.3,1.9-0.5c-0.4-0.6-0.6-1.6-1.2-1.8c-2.6-1.2-3.4-3.7-3.8-5.9c-0.9-4.5-1.3-9.2-1.5-13.8
				c-0.3-7.8-0.2-15.7-2.5-23.3c-1.5-5.3-5.4-8.3-10-10.7c-0.6-0.3-1.2-0.7-1.7-1c0.4-0.6,0.7-1.3,1.2-1.9c0.4-0.4,1-0.7,1.6-1
				c6.2-3.7,10-9.3,11.8-16c0.9-3.3,0.7-6.8,1-10.2c0.6-6.1-1.3-11.6-4.3-16.7c-2.1-3.6-5.3-6.4-9-8.7c-4.1-2.6-8.6-3.9-13.3-4.5
				C172.1,7,168.7,6.9,165.3,6.9L165.3,6.9z M136.5,19.3c4.8,0,9.5,0,14.3-0.1c3.7,0,7.3-0.4,11-0.4c1,0,2.1,0,3.2,0
				c1.9,0,3.9,0.1,5.6,0.7c4.3,1.4,8.8,2.5,12,6.6c4.8,6,4.5,12.5,3.7,19.4c-0.5,4.9-3,8.6-6.7,10.9c-4.9,3.1-10.5,4.7-16.5,4.7
				c-0.2,0-0.4,0-0.6,0c-4.1-0.1-8.1-0.1-12.2-0.1c-7.3,0-14.6,0.1-21.9,0.1c-0.2,0-0.4,0-0.6,0c-3.4,0-3.5-0.3-3.5-4.2
				c0-5.6,0-11.2,0-16.8c0-5.9,0-11.8,0-17.8c0-2.2,0.8-3,3-3c0,0,0.1,0,0.1,0C130.5,19.2,133.5,19.3,136.5,19.3L136.5,19.3z"/>
		</g>
		<g>
			<path class="st0" d="M714.5,124.9c-5,0-9.8-1.4-14.5-2.7c-0.7-0.2-1.3-0.4-2-0.5c-2.3-0.6-4.6-1.2-6.6-2.2
				c-5.3-2.7-9.5-6.1-12.8-10.3c-4.5-6-7-13-7.7-22.3c-0.1-0.8,0-1.4,0.3-1.6c0.2-0.3,0.7-0.4,1.4-0.4c0.1,0,0.2,0,0.3,0l1.1,0
				c1.3,0.1,2.5,0.1,3.8,0.1c1.3,0,2.5-0.1,3.5-0.2c0.2,0,0.4,0,0.6,0c1.5,0,1.8,0.8,2.3,2.7l0.1,0.2c1,3.7,2.2,8.4,4.2,12.4
				c2.7,5.4,7.5,9,14.8,11.1c4.3,1.2,8.7,1.8,13.6,1.8c2.4,0,4.8-0.1,7.4-0.4c3.9-0.4,8-1,11.9-2.7c7-3,11.2-7.5,12.6-13.4
				c1.2-5,0.6-9.8-1.7-14.1c-3.3-5.9-9-7.9-14.6-9.9c-3.8-1.3-7.9-2.3-11.7-3.2l-1.4-0.3c-2.1-0.5-4.3-1-6.4-1.4
				c-2.1-0.4-4.3-0.9-6.4-1.4c-3.4-0.8-7.3-1.8-11.2-3c-3-0.9-6.1-2-8.9-3.5c-3-1.6-6.2-3.8-7.9-7.6c-0.3-0.8-0.8-1.5-1.2-2.2
				c-0.6-1-1.2-1.9-1.5-2.9c-2.2-7-2.2-14.2,0-20.7c2.9-8.7,8.7-15.3,17-19.7c7.2-3.8,14.6-4.3,20.9-4.3c1.5,0,3.1,0,5.1,0.1
				c3.9,0.1,7.8,0.7,11.6,1.3c0.9,0.1,1.9,0.3,2.8,0.4c1.3,0.2,2.8,0.7,4.3,1.5c0.7,0.4,1.4,0.7,2.2,1.1c5,2.5,10.1,5.2,13.3,10.1
				c1.8,2.8,3.3,6.1,4.5,9.7c0.6,1.8,0.9,3.8,1.2,5.7c0.2,1.3,0.4,2.6,0.7,3.8c0.1,0.6,0.1,1,0,1.3c-0.2,0.2-0.6,0.3-1.3,0.3
				c-3.7,0-7.4,0.1-11.1,0.1c0,0,0,0,0,0c-1.4,0-1.6-0.7-1.7-2.3c-0.3-5.6-3.3-9.9-5.8-13.1c-3.3-4.1-8.1-5.8-13.6-7.4
				c-3-0.9-6.2-1.3-9.9-1.3c-1.8,0-3.6,0.1-5.9,0.3c-2.4,0.2-4.8,0.9-7.5,1.6c-1.8,0.5-3.6,1.3-5.1,2.2c-8.3,4.9-11.5,13.6-8.6,23.2
				c0.7,2.2,2.1,4,4.5,5.7c4.4,3.2,9.5,4.5,14.4,5.5c1.6,0.3,3.2,0.9,4.8,1.4c1,0.3,2.1,0.7,3.1,1c1.8,0.5,3.7,0.9,5.8,1.4
				c1.6,0.3,3.3,0.6,4.9,0.9c3.2,0.6,6.5,1.2,9.7,2c1.6,0.4,3.2,1.1,4.8,1.7c1.6,0.7,3.3,1.4,5,1.8c3.1,0.8,5.7,2.4,8.3,5.1
				c4.1,4.2,6.5,8.7,7.6,14c1.3,6.6,0.5,12.9-0.4,18.4c-0.6,3.7-2.5,7.2-5.9,11.1c-4,4.5-9.3,7.7-16.8,9.9c-4.3,1.3-9,2.4-13.8,3.3
				c-2,0.3-4.1,0.4-6.1,0.5c-1,0-2,0.1-3,0.2C715.6,124.9,715,124.9,714.5,124.9z"/>
			<path d="M714.1,2.7c1.5,0,3.1,0,5.1,0.1c3.8,0.1,7.7,0.7,11.5,1.3c0.9,0.1,1.9,0.3,2.8,0.4c1.3,0.2,2.7,0.7,4.1,1.4
				c0.7,0.4,1.4,0.7,2.2,1.1c5.2,2.6,10,5.1,13.1,10c1.8,2.8,3.3,6,4.5,9.6c0.6,1.8,0.9,3.7,1.2,5.6c0.2,1.3,0.4,2.6,0.7,3.9
				c0.1,0.6,0.1,0.8,0.1,0.8c0,0-0.2,0.1-0.9,0.1c-3.7,0-7.4,0.1-11.1,0.1c-0.9,0-1.1-0.2-1.1-1.8c-0.3-5.7-3.3-10.2-5.9-13.4
				c-3.4-4.2-8.3-5.9-13.8-7.5c-3-0.9-6.3-1.3-10.1-1.3c-1.8,0-3.7,0.1-6,0.3c-2.5,0.2-4.9,0.9-7.6,1.7c-1.9,0.5-3.6,1.3-5.2,2.2
				c-8.5,5.1-11.8,13.9-8.8,23.8c0.7,2.3,2.2,4.2,4.7,6c4.5,3.3,9.7,4.6,14.6,5.6c1.6,0.3,3.1,0.8,4.7,1.3c1,0.3,2.1,0.7,3.1,1
				c1.8,0.5,3.7,0.9,5.8,1.4c1.6,0.3,3.3,0.6,5,0.9c3.2,0.6,6.5,1.2,9.7,2c1.6,0.4,3.1,1,4.7,1.7c1.6,0.7,3.3,1.4,5.1,1.8
				c3,0.8,5.6,2.3,8.1,5c4,4.2,6.4,8.5,7.4,13.7c1.3,6.5,0.5,12.8-0.4,18.2c-0.6,3.6-2.4,7-5.8,10.8c-3.9,4.4-9.2,7.5-16.5,9.7
				c-4.3,1.3-8.9,2.4-13.8,3.3c-2,0.3-4.1,0.4-6.1,0.5c-1,0-2,0.1-3,0.2c-0.5,0-1.1,0.1-1.7,0.1c-4.9,0-9.7-1.4-14.4-2.7
				c-0.7-0.2-1.3-0.4-2-0.5c-2.3-0.6-4.5-1.2-6.5-2.2c-5.3-2.7-9.4-6-12.6-10.2c-4.5-5.9-6.9-12.9-7.6-22c-0.1-0.9,0.1-1.2,0.2-1.3
				c0.1-0.1,0.3-0.2,1.1-0.2c0.1,0,0.2,0,0.3,0l1.1,0c1.3,0.1,2.6,0.1,3.8,0.1c1.3,0,2.5-0.1,3.6-0.2c0.2,0,0.4,0,0.6,0
				c1.1,0,1.3,0.3,1.8,2.3l0.1,0.2c1,3.7,2.3,8.4,4.3,12.5c2.7,5.5,7.7,9.2,15.1,11.3c4.3,1.2,8.8,1.8,13.7,1.8
				c2.4,0,4.9-0.1,7.5-0.4c3.9-0.4,8.1-1,12.1-2.7c7.1-3.1,11.5-7.7,12.9-13.7c1.2-5.1,0.6-10.1-1.8-14.4
				c-3.4-6.1-9.2-8.1-14.9-10.1c-3.9-1.3-7.9-2.3-11.8-3.2l-1.4-0.3c-2.1-0.5-4.3-1-6.4-1.4c-2.1-0.4-4.3-0.9-6.4-1.4
				c-3.4-0.8-7.3-1.8-11.2-3c-2.9-0.9-6-2-8.8-3.5c-2.9-1.6-6.1-3.7-7.7-7.3c-0.4-0.8-0.8-1.6-1.3-2.3c-0.6-0.9-1.1-1.8-1.4-2.8
				c-2.2-6.9-2.1-13.9,0-20.4c2.9-8.6,8.5-15.1,16.8-19.4C700.5,3.2,707.8,2.7,714.1,2.7 M714.1,1.7c-7.2,0-14.3,0.8-21.1,4.3
				c-8.5,4.4-14.3,11.1-17.3,20c-2.3,6.8-2.2,14,0,21c0.5,1.8,1.9,3.4,2.7,5.2c1.6,3.7,4.8,6,8.1,7.8c2.8,1.5,5.9,2.6,9,3.5
				c3.7,1.2,7.5,2.1,11.2,3.1c4.3,1,8.6,1.8,12.8,2.8c4.4,1,8.8,2,13.1,3.5c5.6,1.9,11.1,3.9,14.3,9.6c2.4,4.4,2.8,9.2,1.7,13.7
				c-1.5,6.4-6.4,10.5-12.3,13c-3.7,1.6-7.7,2.2-11.8,2.6c-2.5,0.3-4.9,0.4-7.4,0.4c-4.5,0-9-0.5-13.4-1.8
				c-6.2-1.7-11.6-4.9-14.5-10.8c-1.9-3.8-3.1-8.1-4.2-12.3c-0.5-1.9-0.8-3.2-2.9-3.2c-0.2,0-0.4,0-0.7,0c-1.2,0.1-2.3,0.2-3.5,0.2
				c-1.6,0-3.3-0.1-4.9-0.1c-0.1,0-0.2,0-0.3,0c-1.7,0-2.4,0.6-2.2,2.6c0.6,8.2,2.7,15.8,7.8,22.6c3.5,4.6,7.9,7.9,12.9,10.5
				c2.7,1.4,5.8,2,8.7,2.8c4.8,1.4,9.6,2.7,14.6,2.7c0.6,0,1.2,0,1.7-0.1c3-0.2,6.1-0.2,9.1-0.7c4.7-0.9,9.3-2,13.9-3.3
				c6.4-1.9,12.4-4.8,17-10c2.9-3.3,5.3-7,6-11.3c1-6.1,1.7-12.2,0.4-18.5c-1.2-5.7-3.8-10.2-7.7-14.2c-2.4-2.5-5.1-4.3-8.6-5.2
				c-3.3-0.9-6.4-2.7-9.8-3.6c-4.8-1.3-9.8-2-14.7-3c-1.9-0.4-3.9-0.8-5.8-1.4c-2.7-0.7-5.3-1.8-7.9-2.3c-5-1-10-2.3-14.2-5.4
				c-2-1.5-3.6-3.2-4.3-5.5c-2.9-9.4,0.4-17.9,8.4-22.6c1.5-0.9,3.2-1.6,5-2.1c2.4-0.7,4.9-1.4,7.4-1.6c2-0.2,3.9-0.3,5.9-0.3
				c3.3,0,6.5,0.3,9.8,1.2c5,1.5,10,3.1,13.3,7.2c3,3.7,5.5,7.8,5.7,12.8c0.1,1.4,0.2,2.8,2.1,2.8c0,0,0,0,0.1,0
				c3.7-0.1,7.4-0.1,11.1-0.1c1.5,0,2.2-0.5,1.8-2.2c-0.7-3.2-0.8-6.5-1.9-9.6c-1.1-3.4-2.6-6.8-4.6-9.9c-3.7-5.8-9.9-8.4-15.6-11.4
				c-1.4-0.7-2.9-1.3-4.4-1.5c-4.8-0.7-9.6-1.6-14.5-1.8C717.4,1.8,715.8,1.7,714.1,1.7L714.1,1.7z"/>
		</g>
		<g>
			<path class="st0" d="M606.7,124.7c-1.3,0-2.5,0-3.8,0c-1.1,0-2.2,0-3.2,0c-2.7,0-5.4-0.8-8-1.5c-4.2-1.2-7.5-2.4-10.5-3.6
				c-2.3-1-4.3-2.2-5.8-3.7c-2.6-2.5-5-5.3-7.4-8l-0.9-1c-3.8-4.4-4.7-10-5.5-15.3c-0.2-1.5-0.5-3-0.8-4.5c-0.2-0.8-0.1-1.3,0.2-1.6
				c0.3-0.3,0.8-0.5,1.6-0.5l0.2,0c1.1,0,2.3,0.1,3.4,0.1c2.1,0,4.3-0.1,6.4-0.1l0.1,0c1.1,0,1.4,0.3,1.4,1.4
				c0.2,8.1,3.4,14.7,9.3,19.7c4.7,4,10,6.1,15.6,6.3c1.2,0,2.4,0.2,3.6,0.2c1.7,0.1,3.4,0.3,5.1,0.3c0.2,0,0.5,0,0.7,0
				c6.8-0.1,12.7-1.1,17.9-3.1c7.4-2.7,13-10.4,13.2-17.8c0.2-6.3-2-11.3-6.4-14.4c-3.9-2.8-7.4-4.5-10.9-5.3
				c-3.4-0.8-6.9-1.7-10.2-2.7c-2.3-0.6-4.6-1.3-6.9-1.9c-1.4-0.4-2.9-0.6-4.3-0.9c-1.3-0.2-2.6-0.5-3.9-0.8
				c-4.4-1.1-8.3-2.2-11.8-3.3c-2.7-0.9-5.3-1.8-7.6-2.9c-4.7-2.2-8.2-5.9-10.5-10.9c-3.8-8.3-3.5-16.7,0.7-26.3
				c2-4.6,5.1-8.3,8.1-11.6c0.6-0.7,1.6-1.3,2.4-1.8c0.3-0.2,0.6-0.4,0.9-0.5c4.7-2.9,9.8-5.7,15.7-5.9c3.9-0.2,7.7-0.2,11.4-0.2
				c3.4,0,6.8,0.1,9.9,0.2c4.3,0.2,8.8,1.5,14,4.2c0.4,0.2,0.9,0.5,1.3,0.7c3.4,1.7,6.6,3.3,9,6.2l0.8,0.9c1.6,2,3.3,4,4.2,6.2
				c1.3,3.4,2.2,7,3,10.5c0.3,1.1,0.5,2.2,0.8,3.4c0.2,0.6,0.2,1.1,0.2,1.9c0,0.2,0,0.5,0,0.7l-6.5,0c-2.3,0-4.5,0-6.8,0
				c-0.1,0-0.4-0.3-0.5-0.5c-0.4-1.5-0.7-3-1-4.5l0-0.2c-1.4-7.2-5.8-12.6-12.7-15.5c-5.2-2.2-10.7-3.4-16.3-3.4
				c-2.4,0-4.8,0.2-7.2,0.6c-4.9,0.9-9.1,2.4-12.3,4.5c-3.3,2.2-5.8,5.2-7.2,8.9c-1.5,3.9-1.3,7.7-1,11c0.5,5.1,4.4,7.9,7.8,9.8
				c3.6,2,7.5,2.9,11.2,3.9l0.4,0.1c2.1,0.5,4.3,1.1,6.4,1.7c2.1,0.6,4.2,1.2,6.4,1.7c1.6,0.4,3.2,0.6,4.7,0.9
				c1.5,0.2,3.1,0.5,4.6,0.9c3,0.7,6.6,1.6,10.1,2.9c0.8,0.3,1.6,0.5,2.3,0.8c3.3,1.1,6.6,2.2,9.4,4.2c5.8,4,9.4,9.7,10.8,17.1
				c0.9,4.7,0.8,9.5-0.2,15.4c-1.5,8.6-6,14.9-13.7,19.3c-6,3.4-12.5,4.9-19.3,6.4l-0.9,0.2C614.2,124.5,610.1,124.7,606.7,124.7z"
				/>
			<path d="M606.3,3c3.4,0,6.7,0.1,9.9,0.2c4.2,0.2,8.6,1.5,13.8,4.1c0.5,0.2,0.9,0.5,1.4,0.7c3.4,1.7,6.6,3.3,8.9,6.1
				c0.3,0.3,0.5,0.6,0.8,0.9c1.6,1.9,3.3,3.9,4.1,6.1c1.3,3.3,2.2,7,3,10.5c0.3,1.1,0.5,2.2,0.8,3.4c0.1,0.5,0.1,1,0.2,1.7
				c0,0.1,0,0.1,0,0.2l-2.5,0l-3.4,0c-2.7,0-4.8,0-6.7,0c0,0-0.1-0.1-0.1-0.1l0,0c-0.4-1.4-0.7-2.9-1-4.4l0-0.2
				c-1.5-7.4-6-12.9-13-15.9c-5.3-2.3-10.9-3.4-16.5-3.4c-2.4,0-4.9,0.2-7.3,0.6c-4.9,0.9-9.2,2.5-12.5,4.6
				c-3.4,2.2-5.9,5.4-7.4,9.1c-1.6,4-1.4,7.9-1,11.3c0.5,5.4,4.8,8.4,8,10.2c3.6,2,7.6,3,11.4,3.9l0.4,0.1c2.1,0.5,4.3,1.1,6.3,1.7
				c2.1,0.6,4.3,1.2,6.4,1.7c1.6,0.4,3.2,0.6,4.7,0.9c1.5,0.2,3.1,0.5,4.6,0.9c3,0.7,6.6,1.6,10,2.9c0.8,0.3,1.6,0.5,2.3,0.8
				c3.2,1.1,6.6,2.2,9.3,4.1c5.7,3.9,9.3,9.6,10.6,16.7c0.9,4.6,0.8,9.3-0.2,15.2c-1.5,8.5-5.9,14.7-13.4,18.9
				c-6,3.4-12.4,4.8-19.1,6.4l-0.9,0.2c-4.1,0.9-8.1,1.1-11.5,1.1c-1.3,0-2.5,0-3.8,0c-1.1,0-2.2,0-3.3,0c-2.6,0-5.3-0.8-7.9-1.5
				c-4.2-1.2-7.5-2.3-10.4-3.6c-2.2-0.9-4.2-2.2-5.6-3.6c-2.6-2.5-5-5.3-7.3-8l-0.9-1c-3.7-4.3-4.5-9.5-5.4-15.1
				c-0.2-1.5-0.5-3-0.8-4.5c-0.1-0.6-0.1-1,0.1-1.2c0.1-0.2,0.6-0.3,1.2-0.3c0.1,0,0.1,0,0.2,0c1.1,0,2.2,0.1,3.4,0.1
				c2.2,0,4.3-0.1,6.5-0.1l0.1,0c0.8,0,0.9,0,0.9,1c0.2,8.2,3.4,15,9.5,20.1c4.8,4,10.2,6.2,15.9,6.4c1.2,0,2.4,0.2,3.5,0.2
				c1.7,0.1,3.4,0.3,5.1,0.3c0.2,0,0.5,0,0.7,0c6.9-0.1,12.8-1.1,18.1-3.1c7.5-2.8,13.4-10.6,13.5-18.2c0.2-6.4-2.1-11.6-6.6-14.9
				c-3.9-2.8-7.5-4.5-11.1-5.4c-3.4-0.8-6.9-1.7-10.2-2.7c-2.3-0.6-4.6-1.3-6.9-1.9c-1.4-0.4-2.9-0.6-4.3-0.9
				c-1.3-0.2-2.6-0.5-3.9-0.8c-4.4-1.1-8.3-2.2-11.8-3.3c-2.7-0.9-5.2-1.8-7.5-2.9c-4.6-2.2-8-5.7-10.2-10.6
				c-3.7-8.2-3.5-16.4,0.7-25.9c2-4.6,5.1-8.2,8.1-11.5c0.6-0.7,1.4-1.2,2.3-1.7c0.3-0.2,0.6-0.4,0.9-0.6c4.6-2.9,9.7-5.6,15.5-5.9
				C598.9,3.1,602.7,3,606.3,3L606.3,3 M606.3,2c-3.8,0-7.6,0.1-11.4,0.2c-5.9,0.2-11.1,2.9-16,6c-1.2,0.8-2.5,1.4-3.4,2.4
				c-3.2,3.6-6.2,7.1-8.2,11.7c-3.9,8.9-4.8,17.7-0.7,26.7c2.2,5,5.8,8.8,10.7,11.1c2.5,1.2,5,2.1,7.6,2.9c3.9,1.2,7.9,2.3,11.8,3.3
				c2.7,0.7,5.5,1,8.2,1.6c5.7,1.5,11.4,3.3,17.2,4.6c4.1,0.9,7.6,2.9,10.7,5.2c4.6,3.3,6.4,8.4,6.2,14c-0.2,7.5-5.9,14.7-12.9,17.3
				c-5.8,2.1-11.7,2.9-17.8,3c-0.2,0-0.5,0-0.7,0c-2.9,0-5.7-0.4-8.6-0.5c-5.9-0.2-11-2.5-15.3-6.1c-6-5-8.9-11.6-9.2-19.4
				c0-1.4-0.6-1.9-1.9-1.9c0,0-0.1,0-0.1,0c-2.2,0.1-4.3,0.1-6.5,0.1c-1.1,0-2.3,0-3.4-0.1c-0.1,0-0.2,0-0.3,0
				c-1.8,0-2.6,0.8-2.2,2.7c1.4,6.9,1.5,14.3,6.4,20c2.7,3.1,5.3,6.2,8.3,9c1.7,1.6,3.8,2.9,5.9,3.8c3.4,1.5,7,2.6,10.5,3.6
				c2.7,0.8,5.4,1.5,8.2,1.6c2.4,0,4.7,0.1,7.1,0.1c3.9,0,7.8-0.2,11.8-1.1c7-1.6,13.9-3.1,20.3-6.7c7.8-4.4,12.4-10.9,13.9-19.6
				c0.9-5.2,1.2-10.2,0.2-15.6c-1.4-7.5-5-13.3-11-17.4c-3.5-2.4-7.8-3.6-11.8-5c-3.3-1.2-6.7-2.1-10.1-2.9c-3.1-0.7-6.2-1-9.3-1.7
				c-4.3-1-8.5-2.4-12.8-3.4c-4-1-7.9-1.9-11.6-3.9c-3.8-2.2-7.1-5-7.5-9.4c-0.3-3.5-0.5-7.1,1-10.8c1.5-3.8,4.1-6.7,7-8.7
				c3.5-2.3,7.9-3.7,12.1-4.4c2.4-0.4,4.7-0.6,7.1-0.6c5.5,0,11,1.1,16.1,3.3c6.5,2.8,11,7.9,12.4,15.2c0.3,1.5,0.6,3.1,1,4.6
				c0.1,0.4,0.6,0.9,0.9,0.9c2.3,0,4.5,0,6.8,0c2.3,0,4.6,0,7,0c-0.1-1.3,0-2.3-0.2-3.2c-1.2-4.7-2.2-9.5-3.9-13.9
				c-1-2.7-3.2-5-5.1-7.3c-2.8-3.4-6.7-5.1-10.5-7c-4.5-2.3-9.2-4-14.2-4.2C612.9,2.1,609.6,2,606.3,2L606.3,2z"/>
		</g>
		<g>
			<path class="st0" d="M1204.2,320.4c-1.9,0-3.7-0.1-5.4-0.3c-3.6-0.5-7.1-1.3-10-2l-0.3-0.1c-2.9-0.8-5.9-1.5-8.6-2.8
				c-6-2.9-10.4-6.4-13.5-10.7c-4.4-6.2-6.6-11.8-6.7-17.5c0-0.8-0.1-1.6-0.2-2.4c-0.1-1-0.2-2.1-0.2-3.1c0-0.3,0.6-0.9,0.8-1
				c2.8-0.1,5.7-0.1,8.1-0.1l3.4,0c0.4,1.4,0.8,2.8,1.2,4.2c1,3.3,1.8,6.5,3.2,9.5c1.6,3.4,4.1,6.2,7.7,8.8c7,4.8,14.4,5.4,20.1,5.4
				c3,0,6-0.2,8.9-0.4l0.7,0c5.9-0.4,11.5-2.3,16.7-5.8c3.4-2.3,5.3-6.2,6.4-9.2c1.5-3.9,1.5-7.9-0.1-12.1c-1.5-4.1-3.9-7-7.5-9.1
				c-5.1-3-10.7-4.3-16.1-5.5c-0.7-0.2-1.5-0.3-2.2-0.5c-2.3-0.5-4.5-1-6.8-1.5c-5.1-1.1-10.4-2.3-15.5-3.7c-4.5-1.2-9.6-2.9-14-5.4
				c-3.7-2.1-8.8-5.7-9.9-12.2c-0.2-1.2-0.5-2.3-0.8-3.4c-0.2-0.9-0.5-1.7-0.7-2.6c-1-4.6,0.1-8.9,1.2-13.5l0.4-1.5
				c1.7-7.1,5.9-12.7,12.6-17.2c6.3-4.2,11.9-6.2,17.7-6.2c1.9,0,3.9,0,5.8-0.1c1.9,0,3.8-0.1,5.8-0.1c3.1,0,5.6,0.1,7.9,0.3
				c3,0.3,6.1,1.4,9.1,2.4c1,0.3,2,0.7,2.9,1c1.8,0.6,3.5,1.4,5.1,2.4l0.8,0.5c2.5,1.6,5,3.3,7.2,5.3c1.1,1.1,1.9,2.5,2.7,4
				c0.4,0.7,0.8,1.4,1.2,2c2.7,4,3.3,8.6,4,13.4c0.1,1.1,0.3,2.2,0.5,3.2h-13.5c-0.1-0.6-0.2-1.2-0.3-1.8c-0.3-1.7-0.6-3.5-1.3-5.2
				c-0.2-0.6-0.4-1.2-0.6-1.8c-0.7-2-1.4-4.2-3.4-5.7c-0.8-0.6-1.5-1.3-2.2-2c-1.5-1.5-3-3-5.3-3.7c-0.7-0.2-1.4-0.5-2.1-0.8
				c-0.8-0.3-1.7-0.7-2.6-0.9c-3.7-1-7-1.7-10.6-1.7c-0.5,0-1,0-1.6,0.1c-0.4,0-0.8,0-1.2,0c-0.6,0-1.3,0-1.9-0.1
				c-0.6,0-1.3-0.1-1.9-0.1c-1.2,0-2.2,0.1-3,0.3c-7.1,1.8-13.7,3.9-17.7,10.9c-3.5,6.2-3.8,11.7-1.1,16.8c2.7,4.9,7.3,8.1,13.7,9.3
				c4.8,1,9.6,2.1,14.3,3.2l3.1,0.7l3,0.7c4.2,1,8.6,2,12.9,3.1c1.7,0.4,3.3,1.1,4.9,1.7c1,0.4,1.9,0.8,2.9,1.1
				c6.8,2.4,11.5,6,14.5,11.2c4.1,7,5.5,14.5,4.1,22.4c-0.9,5.2-3,9.8-4.9,13.6c-0.9,1.9-2.8,3.8-5.6,5.7c-3.2,2.2-6.8,4-10.3,5.7
				l-0.4,0.2c-1.4,0.7-3.2,1.3-5.2,1.7l-1.6,0.3C1216.9,319.1,1210.5,320.4,1204.2,320.4z"/>
			<path d="M1206.5,198.7c3,0,5.5,0.1,7.8,0.3c3,0.3,6,1.3,9,2.4c1,0.3,2,0.7,2.9,1c1.8,0.6,3.5,1.4,5,2.4l0.8,0.5
				c2.5,1.6,5,3.2,7.1,5.2c1.1,1,1.8,2.4,2.7,3.9c0.4,0.7,0.8,1.4,1.2,2c2.6,3.9,3.2,8.4,3.9,13.2c0.1,0.9,0.2,1.8,0.4,2.7h-12.5
				c-0.1-0.5-0.2-0.9-0.2-1.4c-0.3-1.8-0.6-3.6-1.3-5.3c-0.2-0.6-0.4-1.2-0.6-1.8c-0.7-2-1.4-4.3-3.6-6c-0.7-0.6-1.4-1.2-2.1-1.9
				c-1.5-1.5-3.1-3.1-5.5-3.8c-0.7-0.2-1.3-0.5-2-0.8c-0.8-0.3-1.7-0.7-2.6-0.9c-3.7-1-7.1-1.8-10.7-1.8c-0.5,0-1.1,0-1.6,0.1
				c-0.3,0-0.7,0-1.1,0c-0.6,0-1.3,0-1.9-0.1c-0.6,0-1.3-0.1-1.9-0.1c-1.3,0-2.3,0.1-3.1,0.3c-7.2,1.8-14,4-18,11.1
				c-3.6,6.3-3.9,12-1.1,17.3c2.8,5.1,7.5,8.3,14,9.6c4.8,1,9.6,2.1,14.3,3.2l3.1,0.7c1,0.2,2,0.5,3,0.7c4.2,1,8.6,2,12.9,3.1
				c1.6,0.4,3.2,1,4.8,1.7c0.9,0.4,1.9,0.8,2.9,1.1c6.7,2.3,11.3,5.9,14.3,10.9c4,6.9,5.4,14.3,4.1,22c-0.9,5.1-3,9.7-4.9,13.5
				c-0.9,1.8-2.7,3.6-5.4,5.5c-3.2,2.2-6.8,4-10.2,5.7l-0.4,0.2c-1.4,0.7-3.1,1.3-5.1,1.7l-1.6,0.3c-6.1,1.3-12.5,2.6-18.8,2.6
				c-1.8,0-3.7-0.1-5.4-0.3c-3.5-0.5-7-1.3-9.9-2l-0.3-0.1c-2.9-0.7-5.9-1.5-8.5-2.8c-5.9-2.9-10.3-6.3-13.3-10.5
				c-4.4-6.1-6.5-11.6-6.6-17.2c0-0.8-0.1-1.6-0.2-2.4c-0.1-1-0.2-2-0.2-3c0.1-0.2,0.3-0.4,0.4-0.5c2.8-0.1,5.6-0.1,8-0.1l2,0l1.1,0
				c0.4,1.3,0.8,2.6,1.1,3.8c1,3.4,1.9,6.5,3.3,9.6c1.6,3.4,4.2,6.4,7.9,8.9c7.1,4.9,14.6,5.5,20.4,5.5c3,0,6-0.2,8.9-0.4l0.7,0
				c6-0.4,11.7-2.3,17-5.9c3.6-2.4,5.4-6.3,6.6-9.5c1.6-4,1.5-8.2,0-12.4c-1.6-4.2-4-7.2-7.7-9.3c-5.2-3-10.8-4.3-16.2-5.6
				c-0.7-0.2-1.5-0.3-2.2-0.5c-2.3-0.5-4.6-1-6.8-1.5c-5.1-1.1-10.4-2.3-15.4-3.7c-4.4-1.2-9.6-2.8-13.9-5.3
				c-5.7-3.3-8.8-7.1-9.7-11.8c-0.2-1.2-0.5-2.3-0.9-3.5c-0.2-0.8-0.5-1.7-0.7-2.6c-1-4.5,0.1-8.8,1.2-13.3c0.1-0.5,0.3-1,0.4-1.5
				c1.7-7,5.8-12.5,12.4-16.9c6.2-4.2,11.8-6.1,17.4-6.1c1.9,0,3.9,0,5.8-0.1C1202.7,198.8,1204.6,198.7,1206.5,198.7 M1206.5,197.7
				c-3.8,0-7.7,0.1-11.5,0.1c-6.7,0-12.6,2.7-18,6.3c-6.3,4.2-10.9,9.9-12.8,17.5c-1.2,5-2.7,10-1.6,15.3c0.4,2,1.2,4,1.5,6
				c1.1,6,5.4,9.8,10.2,12.5c4.3,2.5,9.3,4.1,14.1,5.4c7.3,2.1,14.8,3.5,22.3,5.3c6.2,1.5,12.5,2.6,18.2,6c3.7,2.2,5.9,5.2,7.2,8.8
				c1.4,3.8,1.6,7.8,0.1,11.7c-1.4,3.5-3.1,6.9-6.2,9c-4.9,3.3-10.4,5.4-16.5,5.7c-3.2,0.2-6.4,0.4-9.6,0.4c-6.9,0-13.6-1-19.8-5.4
				c-3.4-2.4-6-5.2-7.6-8.6c-2-4.3-3-9-4.6-14c-1.2,0-2.5,0-3.7,0c-2.6,0-5.4,0-8.1,0.1c-0.5,0-1.3,1-1.3,1.5c0,1.9,0.3,3.7,0.3,5.5
				c0.2,6.7,3.1,12.5,6.8,17.7c3.5,4.9,8.3,8.3,13.7,10.9c2.8,1.4,5.9,2.1,9,2.9c3.3,0.8,6.7,1.6,10,2c1.8,0.2,3.7,0.3,5.5,0.3
				c6.9,0,13.8-1.5,20.6-2.9c1.8-0.4,3.7-0.9,5.4-1.8c3.7-1.8,7.4-3.7,10.8-6c2.2-1.5,4.6-3.5,5.8-5.9c2.2-4.3,4.1-8.8,5-13.8
				c1.4-8.2-0.1-15.7-4.2-22.7c-3.3-5.7-8.6-9.2-14.8-11.4c-2.6-0.9-5.1-2.1-7.8-2.8c-5.3-1.4-10.6-2.6-15.9-3.8
				c-5.8-1.4-11.6-2.8-17.4-3.9c-5.8-1.2-10.6-4-13.3-9.1c-3-5.4-2-10.9,1-16.3c3.9-6.9,10.5-8.9,17.4-10.6c0.9-0.2,1.9-0.3,2.9-0.3
				c1.3,0,2.5,0.1,3.8,0.1c0.4,0,0.8,0,1.2,0c0.5,0,1-0.1,1.5-0.1c3.6,0,7,0.8,10.4,1.7c1.6,0.4,3.1,1.2,4.7,1.7
				c3.2,0.9,4.9,3.7,7.3,5.5c2.5,1.9,2.9,4.8,3.9,7.3c0.9,2.3,1.2,4.9,1.7,7.3c4.7,0,9.3,0,14.5,0c-1-6.2-1.2-12.3-4.6-17.4
				c-1.3-2-2.3-4.4-4-6.1c-2.4-2.2-5.2-4-8-5.8c-1.6-1-3.4-1.9-5.2-2.5c-4-1.3-8-3.1-12.1-3.5
				C1211.8,197.8,1209.2,197.7,1206.5,197.7L1206.5,197.7z"/>
		</g>
		<g>
			<path class="st0" d="M541.2,121.9c-16.7-0.1-33.7-0.1-50.1-0.1c-8.3,0-16.6,0-24.9,0h-7.7c-0.2-3-0.3-5.8-0.5-8.9l-0.1-2.4l7.5,0
				c1.3,0,2.6,0,3.9,0l9.9-0.1c9.8-0.1,19.5-0.1,29.3-0.2c3.2,0,6.5-0.1,9.6-0.2c2.8-0.1,5.7-0.2,8.6-0.2c2,0,2.9-0.9,2.9-3
				c-0.1-12-0.2-24.4-0.2-36.8c0-2.6-1.6-2.8-3.2-2.8c-14.8,0.1-29.6,0.1-44.4,0.1l-15,0c-0.8,0-1.6,0-2.5,0V56.3h9.1
				c5.7,0,11.3,0,17-0.1c8.8,0,17.9-0.1,26.8-0.1c2.4,0,4.7,0,7.1,0c0,0,1.7,0,2,0c1,0,1.9,0,2.4-0.6c0.7-0.7,0.7-1.9,0.6-4.7
				c-0.1-7.3-0.1-14.5-0.1-21.8l0-7.3c0-3.7-0.2-3.9-3.7-3.9c-10.9,0-21.9,0.1-32.8,0.1c-10.9,0-21.9,0.1-32.8,0.1
				c-0.3,0-0.5,0-0.9,0V5.4h84.1v14.7l0,27c0,18,0.1,36,0.1,54c0,6.9,0.1,13,0.3,18.5c0,0.9-0.1,1.5-0.4,1.8
				C542.7,121.7,542.1,121.9,541.2,121.9L541.2,121.9z"/>
			<path d="M542.4,5.9v14.2c0,9,0,18,0,27c0,17.7,0.1,36,0.1,54c0,6.9,0.1,13,0.3,18.5c0,0.8-0.1,1.3-0.2,1.4
				c-0.1,0.1-0.5,0.3-1.5,0.3c-16.7-0.1-33.6-0.1-50-0.1c-8.3,0-16.7,0-25,0h-7.3c-0.1-2.8-0.3-5.5-0.4-8.4l-0.1-1.9c1,0,2,0,3.1,0
				c1.3,0,2.6,0,3.9,0c1.3,0,2.6,0,3.9,0l9.8-0.1c9.6-0.1,19.6-0.1,29.4-0.2c3.2,0,6.5-0.1,9.6-0.2c2.8-0.1,5.7-0.2,8.6-0.2
				c2.3,0,3.4-1.2,3.4-3.5l0-0.1c-0.1-12-0.2-24.4-0.2-36.6c0-3.3-2.5-3.3-3.7-3.3c-14.8,0.1-29.9,0.1-44.6,0.1l-14.9,0
				c-0.6,0-1.3,0-2,0V56.8h8.7c5.7,0,11.3,0,17-0.1c8.8,0,17.9-0.1,26.9-0.1c2.4,0,4.7,0,7.1,0c0.4,0,0.7,0,1,0c0.3,0,0.6,0,0.9,0
				c1.1,0,2.1-0.1,2.8-0.7c0.8-0.8,0.8-2.2,0.8-5.1c-0.1-7.3-0.1-14.6-0.1-21.8l0-7.3l0-0.1c0-3.8-0.5-4.3-4.2-4.3
				c-10.9,0-21.9,0.1-32.8,0.1c-10.9,0-21.9,0.1-32.8,0.1c-0.1,0-0.3,0-0.4,0V5.9H542.4 M543.4,4.9c-28.5,0-56.8,0-85.1,0
				c0,4.7,0,9.2,0,13.6c0.6,0,1,0.1,1.4,0.1c21.9-0.1,43.8-0.1,65.7-0.2c3.2,0,3.2,0,3.2,3.4c0.1,9.7,0.1,19.4,0.2,29.1
				c0,4.4,0.1,4.8-2.6,4.8c-0.5,0-1.2,0-2,0c-2.4,0-4.7,0-7.1,0c-14.6,0-29.2,0.1-43.9,0.2c-3.2,0-6.4,0-9.6,0c0,4.2,0,8,0,12.2
				c1.2,0,2.1,0,3,0c19.8,0,39.6,0,59.4-0.1c1.7,0,2.7,0.3,2.7,2.3c0,12.3,0.1,24.5,0.2,36.8c0,1.7-0.6,2.4-2.4,2.5
				c-6.1,0.1-12.2,0.4-18.2,0.4c-13,0.1-26.1,0.2-39.2,0.3c-1.3,0-2.6,0-3.9,0c-2.6,0-5.3,0-8,0c0.2,4.4,0.4,8.2,0.7,12.3
				c2.8,0,5.5,0,8.2,0c25,0,50,0,75.1,0.1c2.2,0,2.7-0.7,2.7-2.7c-0.2-6.2-0.3-12.3-0.3-18.5c-0.1-27-0.1-54-0.2-81
				C543.4,15.1,543.4,10,543.4,4.9L543.4,4.9z"/>
		</g>
		<g>
			<path class="st0" d="M0.5,124.6V7.8h2c4.7,0,9.4,0,14.1,0c4.7,0,9.4,0,14.1,0c8.2,0,14.9,0,21.1,0.1l0.7,0
				c4.5,0,9.1,0.1,13.1,1.6c8,3.1,13.1,7.1,16.5,13c3,5.2,4.5,10.8,4.5,17c0.1,5.1-0.3,11.6-3.8,17.4c-0.4,0.6-0.8,1.3-1.1,1.9
				c-1.8,3.1-3.4,6-6.2,8.2c-3.9,3.1-8,4.9-12.6,5.8c-5.1,0.9-10.2,1-14,1c-2,0-4.1,0-6.1-0.1c-2,0-4.1-0.1-6.1-0.1
				c-1.9,0-3.6,0-5.1,0.1c-2.5,0.1-5.2,0.1-8.3,0.1c-1.9,0-3.9,0-5.8,0h0c-2.8,0-3.1,2.6-3.1,4.6c0.1,14.8,0.3,29.8,0.4,44.3l0,0.1
				c0,0.6,0,1.2-0.3,1.5c-0.2,0.2-0.5,0.3-0.9,0.3H0.5z M14.2,46.5c0,4.3,0,8.7,0,13c0,1.2,0.2,1.9,0.7,2.5c0.5,0.5,1.2,0.7,2.3,0.7
				l0.1,0c3.9,0,7.8,0,11.8,0h4c5,0,10.4,0,15.7-0.1c6.1-0.1,11-1.4,15-4.1c2.6-1.7,5.5-4,6.9-7.7c2-5.4,1.6-10.8,1-16.3
				c-0.6-5.8-4.6-9.3-7.9-11.3c-4.9-3-10.7-3.5-16.1-3.7c-2.2-0.1-4.4-0.1-6.9-0.1c-4.7,0-9.5,0.1-14.2,0.2c-3,0.1-6,0.1-8.9,0.2
				c-2.5,0-3.6,1.2-3.6,3.7c0.1,4.3,0.1,8.7,0.1,12.9c0,1.6,0,3.2,0,4.9v0.5h0.1C14.1,43.3,14.1,44.9,14.2,46.5z"/>
			<path d="M30.7,8.3c8.2,0,14.9,0,21.1,0.1l0.7,0c4.4,0,9,0.1,12.9,1.6c7.9,3,12.9,6.9,16.2,12.7c2.9,5.1,4.4,10.6,4.5,16.8
				c0.1,5-0.3,11.5-3.7,17.2c-0.4,0.6-0.8,1.3-1.1,1.9c-1.7,3-3.4,5.9-6.1,8.1c-3.8,3-7.8,4.9-12.3,5.7c-5,0.9-10.1,1-13.9,1
				c-2,0-4.1,0-6.1-0.1c-2,0-4.1-0.1-6.1-0.1c-1.9,0-3.6,0-5.1,0.1c-2.5,0.1-5.1,0.1-8.3,0.1c-1.9,0-3.9,0-5.8,0l-0.1,0
				c-1.6,0-2.4,0.8-2.8,1.5c-0.5,0.8-0.7,2-0.7,3.6c0.1,14.8,0.3,29.8,0.4,44.3l0,0.1c0,0.8-0.1,1-0.2,1.1c-0.1,0.1-0.2,0.1-0.6,0.1
				H1V8.3h1.5c4.7,0,9.4,0,14.1,0C21.3,8.3,26,8.3,30.7,8.3 M13.5,42.2h0.1c0,1.4,0,2.8,0,4.2c0,4.3,0,8.7,0,13c0,0.8,0.1,2,0.9,2.8
				c0.8,0.8,1.9,0.9,2.7,0.9l0.1,0c4.1,0,8.2,0,11.8,0l2,0l2,0c5.1,0,10.4,0,15.8-0.1c6.2-0.1,11.1-1.5,15.3-4.2
				c2.7-1.8,5.6-4.1,7.1-8c2-5.5,1.6-11,1-16.6c-0.5-4.7-3.3-8.8-8.1-11.6c-5-3.1-10.8-3.6-16.4-3.8c-2.2-0.1-4.4-0.1-6.9-0.1
				c-4.7,0-9.6,0.1-14.2,0.2c-2.9,0.1-6,0.1-8.9,0.2c-2.8,0-4.1,1.4-4.1,4.3c0.1,4.3,0.1,8.7,0.1,12.9c0,1.6,0,3.2,0,4.9V42.2
				 M30.7,7.3c-9.4,0-18.8,0-28.2,0c-0.9,0-1.7,0-2.5,0c0,39.4,0,78.6,0,117.8c4.7,0,9.1,0,13.5,0c1.6,0,1.8-1,1.7-2.2
				c-0.2-14.8-0.4-29.6-0.4-44.4c0-2.7,0.7-4.1,2.5-4.1c0,0,0,0,0.1,0c1.9,0,3.9,0,5.8,0c2.8,0,5.6,0,8.3-0.1
				c1.7-0.1,3.4-0.1,5.1-0.1c4.1,0,8.1,0.1,12.2,0.1c4.7,0,9.4-0.2,14.1-1c4.9-0.9,9-2.9,12.8-5.9c3.5-2.7,5.3-6.6,7.5-10.3
				c3.3-5.5,3.9-11.7,3.9-17.7c-0.1-5.9-1.4-11.7-4.6-17.2c-3.9-6.9-10-10.6-16.7-13.2c-4.2-1.6-9.3-1.6-13.9-1.6
				C44.7,7.3,37.7,7.3,30.7,7.3L30.7,7.3z M14.5,41.2c0-5.9,0.1-11.9-0.1-17.8c0-2.3,0.9-3.2,3.1-3.2c7.7-0.1,15.4-0.4,23.1-0.4
				c2.3,0,4.6,0,6.9,0.1c5.4,0.2,11.1,0.7,15.9,3.6c4,2.4,7.1,6,7.6,10.9c0.6,5.4,1,10.8-0.9,16.1c-1.3,3.5-3.8,5.6-6.7,7.5
				C59,61,54,62,48.8,62.1c-5.2,0.1-10.5,0.1-15.7,0.1c-1.3,0-2.6,0-3.9,0c-3.9,0-7.9,0-11.8,0c0,0-0.1,0-0.1,0
				c-1.9,0-2.6-0.8-2.6-2.7c0.1-6.1,0-12.2,0-18.3C14.6,41.2,14.6,41.2,14.5,41.2L14.5,41.2z"/>
		</g>
		<g>
			<path class="st0" d="M915.8,318.1V202.2c0.1,0,0.2,0,0.3,0c0.5,0,0.9-0.1,1.4-0.1c5.2,0,10.3,0,15.5,0c5.2,0,10.3,0,15.5,0
				c9.1,0,16.5,0,23.3,0.1c4.7,0,9.3,1.2,13.1,3.3c0.6,0.3,1.3,0.7,1.9,1c2,1,4,2.1,5.3,3.6l0.7,0.9c2.4,3,5,6,6.3,9.9
				c2,6,2.7,11.5,2.1,16.9c-0.4,3.7-1.3,7.4-2.6,10.9c-2.3,5.9-5.6,10.4-9.8,13.3c-2.9,1.9-6.1,3.9-10.1,4.8
				c-5.1,1.2-10.1,1.3-14,1.3c-2,0-4.1,0-6.1-0.1c-2,0-4.1-0.1-6.1-0.1c-1.5,0-2.8,0-4.1,0.1c-2,0.1-4.2,0.1-6.7,0.1
				c-2.5,0-5,0-7.5-0.1l-1.3,0c-1.2,0-2,0.2-2.5,0.8c-0.5,0.5-0.8,1.3-0.7,2.5c0.1,6.9,0.1,13.9,0.1,20.8c0,6.9,0.1,13.9,0.1,20.8
				l0,0.4c0,2.4,0,3.8-0.5,4.3c-0.5,0.5-2,0.5-4.6,0.5H915.8z M929.7,240.4c0,4.4,0,9-0.1,13.5c0,1.2,0.2,1.9,0.7,2.4
				c0.5,0.5,1.2,0.7,2.2,0.7l0.2,0c1.4,0,2.8-0.1,4.1-0.1l2.8,0c1.2,0,2.3,0,3.4,0c1.3,0,2.7,0,4,0c0.9,0,4.5,0,5.4,0
				c7.3,0,15-0.2,22.5-2.7c4.8-1.6,8.1-4.3,9.8-8.2c3.3-7.6,3.3-15,0-22.1l-0.2-0.4c-0.8-1.7-1.6-3.6-3.1-4.5
				c-5.9-3.8-11.7-5.7-17.6-5.7H964c-3,0-6,0-9,0.1c-6.3,0-12.6,0.1-18.9,0.1l-3.3,0c-1.2,0-2,0.2-2.5,0.7c-0.5,0.5-0.7,1.2-0.7,2.4
				c0.1,5,0.1,10.1,0.1,15l0,4.2h0.1C929.7,237.3,929.7,238.8,929.7,240.4z"/>
			<path d="M948.6,202.6c9.1,0,16.5,0,23.3,0.1c4.6,0,9.1,1.2,12.9,3.3c0.6,0.4,1.3,0.7,1.9,1c1.9,1,3.9,2,5.1,3.5l0.7,0.9
				c2.5,3.1,4.9,5.9,6.2,9.8c2,5.9,2.7,11.4,2.1,16.7c-0.4,3.6-1.3,7.3-2.6,10.7c-2.3,5.9-5.4,10.2-9.6,13c-2.9,1.9-6.1,3.8-10,4.7
				c-5,1.2-10,1.3-13.8,1.3c-2,0-4.1,0-6.1-0.1c-2,0-4.1-0.1-6.2-0.1c-1.5,0-2.8,0-4.1,0.1c-2,0.1-4.2,0.1-6.7,0.1
				c-2.5,0-5,0-7.5-0.1l-1.2,0l-0.1,0c-0.9,0-2,0.1-2.8,0.9c-0.6,0.6-0.9,1.5-0.9,2.8c0.1,6.9,0.1,14,0.1,20.8
				c0,6.8,0.1,13.9,0.1,20.8l0,0.4c0,2.1,0,3.5-0.3,3.9c-0.4,0.4-2,0.4-4.2,0.4h-8.6V202.7c0.4,0,0.8,0,1.2,0c5.2,0,10.4,0,15.5,0
				C938.3,202.6,943.4,202.6,948.6,202.6 M936.1,212.9c-1.1,0-2.3,0-3.4,0c-0.9,0-2,0.1-2.8,0.9c-0.8,0.8-0.9,2-0.8,2.8
				c0.1,5,0.1,10.1,0.1,15l0,3.8v1h0.1c0,1.4,0,2.7,0,4.1c0,4.4,0,9-0.1,13.4c0,0.8,0.1,2,0.9,2.8c0.8,0.8,1.8,0.9,2.6,0.9
				c0.1,0,0.2,0,0.2,0c1.4,0,2.9,0,4.1,0l1.4,0l1.4,0c1,0,2.2,0,3.5,0c1.2,0,2.5,0,4,0c0.9,0,1.8,0,2.7,0c0.9,0,1.8,0,2.7,0
				c7.3,0,15.1-0.2,22.6-2.7c5-1.6,8.4-4.5,10.2-8.5c3.4-7.7,3.4-15.3,0-22.5l-0.2-0.4c-0.8-1.7-1.7-3.7-3.3-4.7
				c-6-3.9-11.8-5.7-17.8-5.7l-0.1,0c-3,0-5.9,0-8.9,0.1C948.9,212.9,942.4,212.9,936.1,212.9 M948.6,201.6c-10.3,0-20.7,0-31.1,0
				c-0.8,0-1.6,0.1-2.2,0.1c0,39.1,0,78,0,116.8c3.6,0,6.6,0,9.6,0c5.8,0,5.6,0,5.6-5.7c-0.1-13.9-0.1-27.7-0.3-41.6
				c0-2.1,0.8-2.7,2.7-2.7c0,0,0.1,0,0.1,0c2.9,0,5.8,0.1,8.7,0.1c2.2,0,4.5,0,6.7-0.1c1.3-0.1,2.7-0.1,4-0.1
				c4.1,0,8.2,0.2,12.3,0.2c4.7,0,9.4-0.3,14.1-1.3c3.9-0.9,7.2-2.8,10.3-4.9c4.9-3.3,8-8.1,10-13.5c1.3-3.5,2.2-7.3,2.7-11
				c0.7-5.8-0.2-11.5-2.1-17.1c-1.5-4.4-4.4-7.6-7.1-11c-1.8-2.2-4.8-3.3-7.4-4.8c-4.1-2.3-8.7-3.4-13.4-3.4
				C964.1,201.6,956.4,201.6,948.6,201.6L948.6,201.6z M936.1,213.9c9.3,0,18.6-0.1,27.9-0.1c0,0,0.1,0,0.1,0
				c6.4,0,12.1,2.2,17.3,5.6c1.4,0.9,2.3,3,3.1,4.7c3.3,7.2,3.1,14.6,0,21.7c-1.8,4.1-5.2,6.5-9.5,7.9c-7.3,2.4-14.8,2.6-22.3,2.6
				c-1.8,0-3.6,0-5.4,0c-1.4,0-2.7,0-4.1,0c-1.1,0-2.3,0-3.4,0c-0.9,0-1.8,0-2.8,0c-1.4,0-2.8,0-4.1,0.1c-0.1,0-0.1,0-0.2,0
				c-1.8,0-2.5-0.7-2.4-2.6c0.1-6.2,0.1-12.3,0.1-18.5c0,0-0.1,0-0.1,0c0-6.2,0-12.5-0.1-18.7c0-2,0.7-2.6,2.7-2.6
				C933.9,213.9,935,213.9,936.1,213.9L936.1,213.9z"/>
		</g>
		<g>
			<path class="st0" d="M358.8,122.4c-0.8,0-1.3-0.3-1.3-1.7c0-18.8-0.1-37.6-0.1-56.4l-0.1-28.5c-0.1-9.6-0.1-19-0.1-29l11.2,0
				c1.9,0,3.8,0,5.8,0c13.9-0.1,27.7-0.2,41.6-0.4c2.4,0,4.7,0,7,0c3.8,0,7.8,0,11.7-0.1l0.2,0c1.1,0,1.7,0.1,2,0.5
				c0.3,0.3,0.4,1,0.3,1.9c-0.3,2.7-0.2,5.4,0,7.6c0.1,0.8,0,1.4-0.3,1.7c-0.3,0.3-0.8,0.4-1.7,0.4l-0.1,0c-3.7,0-7.4,0-11.1,0
				s-7.4,0-11.1,0c-6.5,0.1-13.1,0.2-19.6,0.2c-6.5,0.1-13,0.2-19.5,0.2c-1.1,0-1.8,0.2-2.2,0.7c-0.5,0.5-0.7,1.2-0.7,2.2
				c0.1,4.3,0.1,8.7,0.1,13c0.1,6.5,0.1,13,0.2,19.5c0,1.4,0.7,3.1,3.6,3.1l12.9-0.1c13.1-0.1,26.1-0.1,39.2-0.3l0.1,0
				c0.9,0,1.5,0.1,1.8,0.5c0.3,0.3,0.4,0.9,0.4,1.8c-0.1,2.3-0.1,4.5-0.1,6.9c0,0.8,0,1.6,0,2.4l-0.2,0c-0.6,0-1.2,0.1-1.7,0.1
				c-17.4,0.1-34.8,0.1-52.2,0.1c-2.5,0-3.6,1-3.6,3.4c0.1,10.7,0.1,21.5,0.1,32.2l0,10.8c0,0.8,0,1.5,0.1,2.3
				c0.1,1.2,0.1,2.5,0,3.7c0,0.5-0.8,1.3-1,1.3C366.6,122.4,362.4,122.4,358.8,122.4z"/>
			<path d="M434.7,6.8c0.3,0,1.4,0,1.6,0.3c0.2,0.2,0.3,0.7,0.2,1.5c-0.3,2.7-0.2,5.5,0,7.7c0.1,0.9-0.1,1.2-0.2,1.3
				c-0.1,0.1-0.4,0.3-1.3,0.3l-0.1,0c-3.7,0-7.4,0-11.1,0c-3.7,0-7.4,0-11.1,0c-6.5,0.1-13,0.2-19.6,0.2c-6.5,0.1-13,0.2-19.5,0.2
				c-0.8,0-1.8,0.1-2.6,0.9c-0.7,0.8-0.8,1.8-0.8,2.5c0.1,4.3,0.1,8.6,0.1,13c0.1,6.4,0.1,13,0.2,19.5c0,1.3,0.6,3.5,4.1,3.5l13-0.1
				c12.8-0.1,26.1-0.1,39.2-0.3l0.1,0c0.8,0,1.2,0.1,1.4,0.3c0.2,0.2,0.3,0.7,0.2,1.4c-0.1,2.3-0.1,4.5-0.1,6.9c0,0.6,0,1.3,0,1.9
				c-0.5,0-0.9,0-1.4,0C410.2,68,392.5,68,375.1,68c-1.7,0-4.1,0.4-4.1,3.9c0.1,10.7,0.1,21.7,0.1,32.3l0,10.8c0,0.8,0,1.5,0.1,2.3
				c0.1,1.2,0.1,2.4,0,3.6c0,0.2-0.4,0.7-0.6,0.8c-4.1,0.2-8.3,0.2-11.9,0.2c-0.5,0-0.8,0-0.8-1.2c0-18.9-0.1-38.1-0.1-56.6
				c0-9.4,0-18.9-0.1-28.3c-0.1-9.4-0.1-18.7-0.1-28.5c1.7,0,3.3,0,4.9,0c1.9,0,3.9,0,5.8,0c1.9,0,3.8,0,5.8,0
				c13.9-0.1,27.9-0.2,41.6-0.4c2.3,0,4.7,0,7,0c3.8,0,7.8,0,11.7-0.1L434.7,6.8 M434.7,5.8c-0.1,0-0.1,0-0.2,0
				c-6.2,0.1-12.5,0.1-18.7,0.1c-13.9,0.1-27.7,0.3-41.6,0.4c-1.9,0-3.8,0-5.8,0c-3.9,0-7.7,0-11.7,0c0,10.1,0,19.8,0.1,29.5
				c0.1,28.3,0.1,56.6,0.2,84.9c0,1.4,0.4,2.2,1.8,2.2c4,0,8,0,12-0.2c0.5,0,1.4-1.1,1.5-1.8c0.2-2-0.1-4-0.1-6
				c0-14.3,0-28.7-0.1-43c0-2.3,1-2.9,3.1-2.9c17.4,0,34.8-0.1,52.2-0.1c0.7,0,1.4-0.1,2.4-0.1c0-3.3-0.1-6.5,0.1-9.7
				c0.1-2.1-0.7-2.7-2.7-2.7c0,0-0.1,0-0.1,0c-17.4,0.2-34.8,0.2-52.1,0.3c-1.7,0-3-0.6-3.1-2.6c-0.2-10.8-0.2-21.6-0.4-32.5
				c0-1.7,0.6-2.4,2.4-2.4c13-0.1,26.1-0.3,39.1-0.5c3.7,0,7.4,0,11.1,0c3.7,0,7.4,0,11.1,0c0,0,0.1,0,0.1,0c1.9,0,2.6-0.6,2.4-2.6
				c-0.2-2.5-0.3-5,0-7.5C437.8,6.2,436.7,5.8,434.7,5.8L434.7,5.8z"/>
		</g>
		<g>
			<rect x="831.7" y="133.3" class="st0" width="12.7" height="14.4"/>
			<path d="M843.9,133.8v13.4h-11.7v-13.4H843.9 M844.9,132.8c-4.6,0-9.1,0-13.7,0c0,5.2,0,10.3,0,15.4c4.6,0,9,0,13.7,0
				C844.9,143,844.9,138.1,844.9,132.8L844.9,132.8z"/>
		</g>
		<g>
			<path class="st0" d="M281.1,150.8c-0.9,0-1.8,0-2.7,0c-2.3,0-3.7-0.1-4.2-0.6c-0.5-0.5-0.5-1.8-0.6-4.2c0-2.3,0-4.6,0-7l0-3.1
				h12.3v14.9L281.1,150.8z"/>
			<path d="M285.6,136.4v13.9c-0.6,0-1.2,0-1.7,0c-0.9,0-1.8,0-2.7,0c-0.9,0-1.8,0-2.7,0c-2,0-3.5-0.1-3.8-0.4
				c-0.4-0.4-0.4-1.8-0.4-3.8c0-2.3,0-4.6,0-7c0-0.9,0-1.8,0-2.6H285.6 M286.6,135.4c-4.5,0-8.8,0-13.3,0c0,3.7,0,7.1,0,10.6
				c0.1,5.1,0.1,5.2,5.2,5.2c0.9,0,1.8,0,2.7,0c1.8,0,3.6,0,5.4,0C286.6,145.9,286.6,140.7,286.6,135.4L286.6,135.4z"/>
		</g>
	</g>
</g>
</svg>
